<?xml version="1.0" encoding="UTF-8"?>
<svg id="_레이어_2" data-name="레이어 2" xmlns="http://www.w3.org/2000/svg" viewBox="0 0 119.64 49.02">
  <defs>
    <style>
      .cls-1 {
        fill: #2c2522;
      }

      .cls-2 {
        fill: #a9aaaa;
      }

      .cls-3 {
        fill: #2a2320;
      }

      .cls-4 {
        fill: #494747;
      }

      .cls-5 {
        fill: #fdfdfe;
      }

      .cls-6 {
        fill: #dbdcdc;
      }

      .cls-7 {
        fill: #484646;
      }

      .cls-8 {
        fill: #3e3c3a;
      }

      .cls-9 {
        fill: #3d3a39;
      }

      .cls-10 {
        fill: #d9dada;
      }

      .cls-11 {
        fill: #211816;
      }

      .cls-12 {
        fill: #f4f4f4;
      }

      .cls-13 {
        fill: #444241;
      }

      .cls-14 {
        fill: #a6a7a7;
      }

      .cls-15 {
        fill: #434140;
      }

      .cls-16 {
        fill: #f8f9f9;
      }

      .cls-17 {
        fill: #dedfdf;
      }

      .cls-18 {
        fill: #4d4b4a;
      }

      .cls-19 {
        fill: #f9fafa;
      }

      .cls-20 {
        fill: #d0d0d1;
      }

      .cls-21 {
        fill: #28211f;
      }

      .cls-22 {
        fill: #a8a9a9;
      }

      .cls-23 {
        fill: #dadadb;
      }

      .cls-24 {
        fill: #6e6d6d;
      }

      .cls-25 {
        fill: #fff;
      }

      .cls-26 {
        fill: #231b19;
      }

      .cls-27 {
        fill: #878787;
      }

      .cls-28 {
        fill: #f3f4f4;
      }

      .cls-29 {
        fill: #595757;
      }

      .cls-30 {
        fill: #cececf;
      }

      .cls-31 {
        fill: #f4f5f5;
      }

      .cls-32 {
        fill: #221a18;
      }

      .cls-33 {
        fill: #34302e;
      }

      .cls-34 {
        fill: #7f7e7f;
      }

      .cls-35 {
        fill: #e1e1e1;
      }

      .cls-36 {
        fill: #fefefe;
      }

      .cls-37 {
        fill: #f7f7f7;
      }

      .cls-38 {
        fill: #5e5d5d;
      }

      .cls-39 {
        fill: #302a28;
      }

      .cls-40 {
        fill: #a5a6a6;
      }

      .cls-41 {
        fill: #271f1c;
      }

      .cls-42 {
        fill: #b5b6b6;
      }

      .cls-43 {
        fill: #241c1a;
      }

      .cls-44 {
        fill: #f5f6f6;
      }

      .cls-45 {
        fill: #201715;
      }

      .cls-46 {
        fill: #a7a8a8;
      }

      .cls-47 {
        fill: #8a8b8b;
      }
    </style>
  </defs>
  <g id="_레이어_1-2" data-name="레이어 1">
    <rect class="cls-21" x="86.58" y="45.69" width="3.23" height="3.22"/>
    <rect class="cls-41" x="83.36" y="45.69" width="3.22" height="3.22"/>
    <rect class="cls-21" x="80.13" y="45.69" width="3.23" height="3.22"/>
    <rect class="cls-21" x="76.91" y="45.69" width="3.22" height="3.22"/>
    <rect class="cls-21" x="73.68" y="45.69" width="3.22" height="3.22"/>
    <rect class="cls-41" x="70.46" y="45.69" width="3.23" height="3.22"/>
    <rect class="cls-21" x="67.23" y="45.69" width="3.22" height="3.22"/>
    <rect class="cls-45" x="86.58" y="42.47" width="3.23" height="3.23"/>
    <rect class="cls-40" x="83.36" y="42.47" width="3.22" height="3.23"/>
    <rect class="cls-45" x="80.13" y="42.47" width="3.23" height="3.23"/>
    <rect class="cls-39" x="76.91" y="42.47" width="3.22" height="3.23"/>
    <rect class="cls-14" x="73.68" y="42.47" width="3.22" height="3.23"/>
    <rect class="cls-22" x="70.46" y="42.47" width="3.23" height="3.23"/>
    <rect class="cls-2" x="67.23" y="42.47" width="3.22" height="3.23"/>
    <rect class="cls-27" x="64.01" y="42.47" width="3.23" height="3.23"/>
    <rect class="cls-18" x="86.58" y="39.24" width="3.23" height="3.23"/>
    <rect class="cls-17" x="83.36" y="39.24" width="3.22" height="3.23"/>
    <rect class="cls-4" x="80.13" y="39.24" width="3.23" height="3.23"/>
    <rect class="cls-38" x="76.91" y="39.24" width="3.22" height="3.23"/>
    <rect class="cls-10" x="73.68" y="39.24" width="3.22" height="3.23"/>
    <rect class="cls-5" x="70.46" y="39.24" width="3.23" height="3.23"/>
    <rect class="cls-5" x="67.23" y="39.24" width="3.22" height="3.23"/>
    <rect class="cls-29" x="64.01" y="39.24" width="3.23" height="3.23"/>
    <rect class="cls-14" x="60.78" y="39.24" width="3.22" height="3.23"/>
    <rect class="cls-45" x="83.36" y="36.02" width="3.22" height="3.23"/>
    <rect class="cls-5" x="80.13" y="36.02" width="3.23" height="3.23"/>
    <rect class="cls-23" x="76.91" y="36.02" width="3.22" height="3.23"/>
    <rect class="cls-45" x="73.68" y="36.02" width="3.22" height="3.23"/>
    <rect class="cls-5" x="70.46" y="36.02" width="3.23" height="3.23"/>
    <rect class="cls-5" x="67.23" y="36.02" width="3.22" height="3.23"/>
    <rect class="cls-5" x="64.01" y="36.02" width="3.23" height="3.23"/>
    <rect class="cls-24" x="60.78" y="36.02" width="3.22" height="3.23"/>
    <rect class="cls-45" x="62.24" y="41.79" width="3.23" height="2.42"/>
    <rect class="cls-45" x="59.01" y="41.79" width="3.22" height="2.42"/>
    <rect class="cls-45" x="55.79" y="41.79" width="3.22" height="2.42"/>
    <rect class="cls-45" x="52.56" y="41.79" width="3.23" height="2.42"/>
    <rect class="cls-45" x="50.37" y="41.79" width="11.87" height="2.42"/>
    <rect class="cls-45" x="48.2" y="41.83" width="16.11" height="2.42"/>
    <rect class="cls-45" x="80.13" y="32.79" width="3.23" height="3.23"/>
    <rect class="cls-9" x="76.91" y="32.79" width="3.22" height="3.23"/>
    <rect class="cls-45" x="70.46" y="32.79" width="3.23" height="3.23"/>
    <rect class="cls-5" x="67.23" y="32.79" width="3.22" height="3.23"/>
    <rect class="cls-5" x="64.01" y="32.79" width="3.23" height="3.23"/>
    <rect class="cls-36" x="60.78" y="32.79" width="3.22" height="3.23"/>
    <rect class="cls-36" x="62.24" y="39.37" width="3.23" height="2.42"/>
    <rect class="cls-25" x="59.01" y="39.37" width="3.22" height="2.42"/>
    <rect class="cls-36" x="55.79" y="39.37" width="3.22" height="2.42"/>
    <rect class="cls-36" x="52.56" y="39.37" width="3.23" height="2.42"/>
    <rect class="cls-36" x="50.37" y="39.37" width="11.87" height="2.42"/>
    <rect class="cls-36" x="47.4" y="39.41" width="16.91" height="2.42"/>
    <rect class="cls-45" x="23.99" y="40.21" width="3.43" height="3.23"/>
    <rect class="cls-45" x="20.56" y="40.21" width="3.43" height="3.23"/>
    <rect class="cls-45" x="17.13" y="40.21" width="3.43" height="3.23"/>
    <rect class="cls-45" x="13.71" y="40.21" width="3.43" height="3.23"/>
    <rect class="cls-45" x="10.28" y="40.21" width="3.43" height="3.23"/>
    <rect class="cls-45" x="6.85" y="40.21" width="3.43" height="3.23"/>
    <rect class="cls-45" x="3.43" y="40.21" width="3.43" height="3.23"/>
    <rect class="cls-45" x="109.97" y="38.27" width="3.22" height="2.58"/>
    <rect class="cls-45" x="106.74" y="38.27" width="3.23" height="2.58"/>
    <rect class="cls-45" x="103.52" y="38.27" width="3.22" height="2.58"/>
    <rect class="cls-45" x="100.29" y="38.27" width="3.23" height="2.58"/>
    <rect class="cls-45" x="97.07" y="38.27" width="3.22" height="2.58"/>
    <rect class="cls-45" x="93.84" y="38.27" width="3.22" height="2.58"/>
    <rect class="cls-45" x="90.62" y="38.27" width="3.23" height="2.58"/>
    <rect class="cls-45" x="87.39" y="38.27" width="3.22" height="2.58"/>
    <rect class="cls-5" x="62.24" y="36.95" width="3.23" height="2.42"/>
    <rect class="cls-36" x="59.01" y="36.95" width="3.22" height="2.42"/>
    <rect class="cls-5" x="55.79" y="36.95" width="3.22" height="2.42"/>
    <rect class="cls-36" x="52.56" y="36.95" width="3.23" height="2.42"/>
    <rect class="cls-36" x="50.37" y="36.95" width="11.87" height="2.42"/>
    <rect class="cls-36" x="40.58" y="36.99" width="11.87" height="2.42"/>
    <rect class="cls-36" x="37.33" y="36.99" width="3.25" height="2.42"/>
    <rect class="cls-36" x="34.09" y="36.99" width="3.25" height="2.42"/>
    <rect class="cls-36" x="30.84" y="36.99" width="3.25" height="2.42"/>
    <rect class="cls-36" x="27.59" y="36.99" width="3.25" height="2.42"/>
    <rect class="cls-36" x="24.35" y="36.99" width="3.25" height="2.42"/>
    <rect class="cls-45" x="21.1" y="36.99" width="3.25" height="2.42"/>
    <rect class="cls-45" x="27.41" y="36.99" width="3.43" height="3.22"/>
    <rect class="cls-36" x="23.99" y="36.99" width="3.43" height="3.22"/>
    <rect class="cls-5" x="20.56" y="36.99" width="3.43" height="3.22"/>
    <rect class="cls-25" x="17.13" y="36.99" width="3.43" height="3.22"/>
    <rect class="cls-20" x="13.71" y="36.99" width="3.43" height="3.22"/>
    <rect class="cls-45" x="10.28" y="36.99" width="3.43" height="3.22"/>
    <rect class="cls-5" x="6.85" y="36.99" width="3.43" height="3.22"/>
    <rect class="cls-5" x="3.43" y="36.99" width="3.43" height="3.22"/>
    <rect class="cls-45" y="36.99" width="3.43" height="3.22"/>
    <rect class="cls-21" x="109.97" y="35.69" width="3.22" height="2.58"/>
    <rect class="cls-41" x="106.74" y="35.69" width="3.23" height="2.58"/>
    <rect class="cls-21" x="103.52" y="35.69" width="3.22" height="2.58"/>
    <rect class="cls-3" x="100.29" y="35.69" width="3.23" height="2.58"/>
    <rect class="cls-21" x="97.07" y="35.69" width="3.22" height="2.58"/>
    <rect class="cls-21" x="93.84" y="35.69" width="3.22" height="2.58"/>
    <rect class="cls-21" x="90.62" y="35.69" width="3.23" height="2.58"/>
    <rect class="cls-21" x="87.39" y="35.69" width="3.22" height="2.58"/>
    <rect class="cls-5" x="70.4" y="34.54" width="4.93" height="2.42"/>
    <rect class="cls-5" x="65.46" y="34.54" width="4.93" height="2.42"/>
    <rect class="cls-5" x="62.24" y="34.54" width="3.23" height="2.42"/>
    <rect class="cls-5" x="59.01" y="34.54" width="3.22" height="2.42"/>
    <rect class="cls-36" x="55.79" y="34.54" width="3.22" height="2.42"/>
    <rect class="cls-36" x="52.56" y="34.54" width="3.23" height="2.42"/>
    <rect class="cls-36" x="50.37" y="34.54" width="11.87" height="2.42"/>
    <rect class="cls-36" x="40.58" y="34.57" width="11.87" height="2.42"/>
    <rect class="cls-36" x="37.33" y="34.57" width="3.25" height="2.42"/>
    <rect class="cls-36" x="34.09" y="34.57" width="3.25" height="2.42"/>
    <rect class="cls-36" x="30.84" y="34.57" width="3.25" height="2.42"/>
    <rect class="cls-36" x="27.59" y="34.57" width="3.25" height="2.42"/>
    <rect class="cls-36" x="24.35" y="34.57" width="3.25" height="2.42"/>
    <rect class="cls-45" x="21.1" y="34.57" width="3.25" height="2.42"/>
    <rect class="cls-45" x="27.41" y="33.76" width="3.43" height="3.23"/>
    <rect class="cls-37" x="23.99" y="33.76" width="3.43" height="3.23"/>
    <rect class="cls-16" x="20.56" y="33.76" width="3.43" height="3.23"/>
    <rect class="cls-12" x="17.13" y="33.76" width="3.43" height="3.23"/>
    <rect class="cls-30" x="13.71" y="33.76" width="3.43" height="3.23"/>
    <rect class="cls-45" x="10.28" y="33.76" width="3.43" height="3.23"/>
    <rect class="cls-31" x="6.85" y="33.76" width="3.43" height="3.23"/>
    <rect class="cls-44" x="3.43" y="33.76" width="3.43" height="3.23"/>
    <rect class="cls-3" y="33.76" width="3.43" height="3.23"/>
    <rect class="cls-45" x="113.19" y="33.11" width="3.22" height="2.58"/>
    <rect class="cls-19" x="109.97" y="33.11" width="3.22" height="2.58"/>
    <rect class="cls-5" x="106.74" y="33.11" width="3.23" height="2.58"/>
    <rect class="cls-36" x="103.52" y="33.11" width="3.22" height="2.58"/>
    <rect class="cls-36" x="100.29" y="33.11" width="3.23" height="2.58"/>
    <rect class="cls-36" x="97.07" y="33.11" width="3.22" height="2.58"/>
    <rect class="cls-36" x="93.84" y="33.11" width="3.22" height="2.58"/>
    <rect class="cls-36" x="90.62" y="33.11" width="3.23" height="2.58"/>
    <rect class="cls-36" x="87.39" y="33.11" width="3.22" height="2.58"/>
    <rect class="cls-5" x="84.2" y="33.11" width="4.93" height="2.58"/>
    <rect class="cls-5" x="79.27" y="33.11" width="4.93" height="2.58"/>
    <rect class="cls-5" x="74.34" y="33.11" width="4.93" height="2.58"/>
    <rect class="cls-36" x="70.4" y="32.12" width="4.93" height="2.42"/>
    <rect class="cls-5" x="65.46" y="32.12" width="4.93" height="2.42"/>
    <rect class="cls-5" x="62.24" y="32.12" width="3.23" height="2.42"/>
    <rect class="cls-5" x="59.01" y="32.12" width="3.22" height="2.42"/>
    <rect class="cls-5" x="55.79" y="32.12" width="3.22" height="2.42"/>
    <rect class="cls-36" x="52.56" y="32.12" width="3.23" height="2.42"/>
    <rect class="cls-5" x="50.37" y="32.12" width="11.87" height="2.42"/>
    <rect class="cls-36" x="40.58" y="32.15" width="11.87" height="2.42"/>
    <rect class="cls-36" x="37.33" y="32.15" width="3.25" height="2.42"/>
    <rect class="cls-36" x="34.09" y="32.15" width="3.25" height="2.42"/>
    <rect class="cls-36" x="30.84" y="32.15" width="3.25" height="2.42"/>
    <rect class="cls-36" x="27.59" y="32.15" width="3.25" height="2.42"/>
    <rect class="cls-25" x="24.35" y="32.15" width="3.25" height="2.42"/>
    <rect class="cls-45" x="21.1" y="32.15" width="3.25" height="2.42"/>
    <rect class="cls-45" x="27.41" y="30.54" width="3.43" height="3.23"/>
    <rect class="cls-45" x="23.99" y="30.54" width="3.43" height="3.23"/>
    <rect class="cls-45" x="20.56" y="30.54" width="3.43" height="3.23"/>
    <rect class="cls-45" x="17.13" y="30.54" width="3.43" height="3.23"/>
    <rect class="cls-45" x="13.71" y="30.54" width="3.43" height="3.23"/>
    <rect class="cls-45" x="10.28" y="30.54" width="3.43" height="3.23"/>
    <rect class="cls-45" x="6.85" y="30.54" width="3.43" height="3.23"/>
    <rect class="cls-45" x="3.43" y="30.54" width="3.43" height="3.23"/>
    <rect class="cls-45" x="116.42" y="30.53" width="3.23" height="2.58"/>
    <rect class="cls-5" x="113.19" y="30.53" width="3.22" height="2.58"/>
    <rect class="cls-5" x="109.97" y="30.53" width="3.22" height="2.58"/>
    <rect class="cls-5" x="106.74" y="30.53" width="3.23" height="2.58"/>
    <rect class="cls-5" x="103.52" y="30.53" width="3.22" height="2.58"/>
    <rect class="cls-36" x="100.29" y="30.53" width="3.23" height="2.58"/>
    <rect class="cls-36" x="97.07" y="30.53" width="3.22" height="2.58"/>
    <rect class="cls-36" x="93.84" y="30.53" width="3.22" height="2.58"/>
    <rect class="cls-36" x="90.62" y="30.53" width="3.23" height="2.58"/>
    <rect class="cls-36" x="87.39" y="30.53" width="3.22" height="2.58"/>
    <rect class="cls-36" x="84.17" y="30.53" width="3.23" height="2.58"/>
    <rect class="cls-5" x="80.94" y="30.53" width="3.22" height="2.58"/>
    <rect class="cls-5" x="77.72" y="30.53" width="3.23" height="2.58"/>
    <rect class="cls-36" x="74.49" y="30.53" width="3.22" height="2.58"/>
    <rect class="cls-36" x="71.27" y="30.53" width="3.22" height="2.58"/>
    <rect class="cls-5" x="68.69" y="29.7" width="3.23" height="2.42"/>
    <rect class="cls-5" x="65.46" y="29.7" width="3.22" height="2.42"/>
    <rect class="cls-5" x="62.24" y="29.7" width="3.23" height="2.42"/>
    <rect class="cls-5" x="59.01" y="29.7" width="3.22" height="2.42"/>
    <rect class="cls-36" x="55.79" y="29.7" width="3.22" height="2.42"/>
    <rect class="cls-36" x="52.56" y="29.7" width="3.23" height="2.42"/>
    <rect class="cls-5" x="50.37" y="29.7" width="11.87" height="2.42"/>
    <rect class="cls-36" x="40.58" y="29.73" width="11.87" height="2.42"/>
    <rect class="cls-36" x="37.33" y="29.73" width="3.25" height="2.42"/>
    <rect class="cls-25" x="34.09" y="29.73" width="3.25" height="2.42"/>
    <rect class="cls-36" x="30.84" y="29.73" width="3.25" height="2.42"/>
    <rect class="cls-36" x="27.59" y="29.73" width="3.25" height="2.42"/>
    <rect class="cls-36" x="24.35" y="29.73" width="3.25" height="2.42"/>
    <rect class="cls-45" x="21.1" y="29.73" width="3.25" height="2.42"/>
    <rect class="cls-45" x="116.42" y="27.95" width="3.23" height="2.58"/>
    <rect class="cls-36" x="113.19" y="27.95" width="3.22" height="2.58"/>
    <rect class="cls-36" x="109.97" y="27.95" width="3.22" height="2.58"/>
    <rect class="cls-5" x="106.74" y="27.95" width="3.23" height="2.58"/>
    <rect class="cls-5" x="103.52" y="27.95" width="3.22" height="2.58"/>
    <rect class="cls-5" x="100.29" y="27.95" width="3.23" height="2.58"/>
    <rect class="cls-36" x="97.07" y="27.95" width="3.22" height="2.58"/>
    <rect class="cls-36" x="93.84" y="27.95" width="3.22" height="2.58"/>
    <rect class="cls-36" x="90.62" y="27.95" width="3.23" height="2.58"/>
    <rect class="cls-36" x="87.39" y="27.95" width="3.22" height="2.58"/>
    <rect class="cls-36" x="84.17" y="27.95" width="3.23" height="2.58"/>
    <rect class="cls-5" x="80.94" y="27.95" width="3.22" height="2.58"/>
    <rect class="cls-5" x="77.72" y="27.95" width="3.23" height="2.58"/>
    <rect class="cls-36" x="74.49" y="27.95" width="3.22" height="2.58"/>
    <rect class="cls-36" x="71.27" y="27.95" width="3.22" height="2.58"/>
    <rect class="cls-5" x="68.69" y="27.28" width="3.23" height="2.42"/>
    <rect class="cls-5" x="65.46" y="27.28" width="3.22" height="2.42"/>
    <rect class="cls-5" x="62.24" y="27.28" width="3.23" height="2.42"/>
    <rect class="cls-36" x="59.01" y="27.28" width="3.22" height="2.42"/>
    <rect class="cls-36" x="55.79" y="27.28" width="3.22" height="2.42"/>
    <rect class="cls-5" x="52.56" y="27.28" width="3.23" height="2.42"/>
    <rect class="cls-5" x="50.37" y="27.28" width="11.87" height="2.42"/>
    <rect class="cls-36" x="40.58" y="27.31" width="11.87" height="2.42"/>
    <rect class="cls-36" x="37.33" y="27.31" width="3.25" height="2.42"/>
    <rect class="cls-25" x="34.09" y="27.31" width="3.25" height="2.42"/>
    <rect class="cls-36" x="30.84" y="27.31" width="3.25" height="2.42"/>
    <rect class="cls-36" x="27.59" y="27.31" width="3.25" height="2.42"/>
    <rect class="cls-36" x="24.35" y="27.31" width="3.25" height="2.42"/>
    <rect class="cls-45" x="21.1" y="27.31" width="3.25" height="2.42"/>
    <rect class="cls-45" x="116.42" y="25.37" width="3.23" height="2.58"/>
    <rect class="cls-15" x="113.19" y="25.37" width="3.22" height="2.58"/>
    <rect class="cls-36" x="106.74" y="25.37" width="3.23" height="2.58"/>
    <rect class="cls-5" x="103.52" y="25.37" width="3.22" height="2.58"/>
    <rect class="cls-5" x="100.29" y="25.37" width="3.23" height="2.58"/>
    <rect class="cls-35" x="97.07" y="25.37" width="3.22" height="2.58"/>
    <rect class="cls-8" x="93.84" y="25.37" width="3.22" height="2.58"/>
    <rect class="cls-45" x="90.62" y="25.37" width="3.23" height="2.58"/>
    <rect class="cls-45" x="87.39" y="25.37" width="3.22" height="2.58"/>
    <rect class="cls-36" x="84.17" y="25.37" width="3.23" height="2.58"/>
    <rect class="cls-5" x="80.94" y="25.37" width="3.22" height="2.58"/>
    <rect class="cls-36" x="77.72" y="25.37" width="3.23" height="2.58"/>
    <rect class="cls-36" x="74.49" y="25.37" width="3.22" height="2.58"/>
    <rect class="cls-36" x="71.27" y="25.37" width="3.22" height="2.58"/>
    <rect class="cls-5" x="68.69" y="24.86" width="3.23" height="2.42"/>
    <rect class="cls-5" x="65.46" y="24.86" width="3.22" height="2.42"/>
    <rect class="cls-36" x="62.24" y="24.86" width="3.23" height="2.42"/>
    <rect class="cls-5" x="59.01" y="24.86" width="3.22" height="2.42"/>
    <rect class="cls-36" x="55.79" y="24.86" width="3.22" height="2.42"/>
    <rect class="cls-5" x="52.56" y="24.86" width="3.23" height="2.42"/>
    <rect class="cls-36" x="50.37" y="24.86" width="11.87" height="2.42"/>
    <rect class="cls-36" x="40.58" y="24.89" width="11.87" height="2.42"/>
    <rect class="cls-36" x="37.33" y="24.89" width="3.25" height="2.42"/>
    <rect class="cls-36" x="34.09" y="24.89" width="3.25" height="2.42"/>
    <rect class="cls-36" x="30.84" y="24.89" width="3.25" height="2.42"/>
    <rect class="cls-36" x="27.59" y="24.89" width="3.25" height="2.42"/>
    <rect class="cls-36" x="24.35" y="24.89" width="3.25" height="2.42"/>
    <rect class="cls-45" x="21.1" y="24.89" width="3.25" height="2.42"/>
    <rect class="cls-45" x="116.42" y="22.79" width="3.23" height="2.58"/>
    <rect class="cls-25" x="113.19" y="22.79" width="3.22" height="2.58"/>
    <rect class="cls-5" x="106.74" y="22.79" width="3.23" height="2.58"/>
    <rect class="cls-36" x="103.52" y="22.79" width="3.22" height="2.58"/>
    <rect class="cls-36" x="100.29" y="22.79" width="3.23" height="2.58"/>
    <rect class="cls-23" x="97.07" y="22.79" width="3.22" height="2.58"/>
    <rect class="cls-25" x="93.84" y="22.79" width="3.22" height="2.58"/>
    <rect class="cls-36" x="90.62" y="22.79" width="3.23" height="2.58"/>
    <rect class="cls-36" x="87.39" y="22.79" width="3.22" height="2.58"/>
    <rect class="cls-36" x="84.17" y="22.79" width="3.23" height="2.58"/>
    <rect class="cls-36" x="80.94" y="22.79" width="3.22" height="2.58"/>
    <rect class="cls-36" x="77.72" y="22.79" width="3.23" height="2.58"/>
    <rect class="cls-5" x="74.49" y="22.79" width="3.22" height="2.58"/>
    <rect class="cls-5" x="71.27" y="22.79" width="3.22" height="2.58"/>
    <rect class="cls-5" x="68.69" y="22.44" width="3.23" height="2.42"/>
    <rect class="cls-5" x="65.46" y="22.44" width="3.22" height="2.42"/>
    <rect class="cls-36" x="62.24" y="22.44" width="3.23" height="2.42"/>
    <rect class="cls-36" x="59.01" y="22.44" width="3.22" height="2.42"/>
    <rect class="cls-5" x="55.79" y="22.44" width="3.22" height="2.42"/>
    <rect class="cls-36" x="52.56" y="22.44" width="3.23" height="2.42"/>
    <rect class="cls-36" x="50.37" y="22.44" width="11.87" height="2.42"/>
    <rect class="cls-36" x="40.58" y="22.48" width="11.87" height="2.42"/>
    <rect class="cls-36" x="37.33" y="22.48" width="3.25" height="2.42"/>
    <rect class="cls-25" x="34.09" y="22.48" width="3.25" height="2.42"/>
    <rect class="cls-36" x="30.84" y="22.48" width="3.25" height="2.42"/>
    <rect class="cls-36" x="27.59" y="22.48" width="3.25" height="2.42"/>
    <rect class="cls-5" x="24.35" y="22.48" width="3.25" height="2.42"/>
    <rect class="cls-45" x="21.1" y="22.48" width="3.25" height="2.42"/>
    <rect class="cls-45" x="116.42" y="20.21" width="3.23" height="2.58"/>
    <rect class="cls-25" x="113.19" y="20.21" width="3.22" height="2.58"/>
    <rect class="cls-36" x="106.74" y="20.21" width="3.23" height="2.58"/>
    <rect class="cls-36" x="103.52" y="20.21" width="3.22" height="2.58"/>
    <rect class="cls-5" x="100.29" y="20.21" width="3.23" height="2.58"/>
    <rect class="cls-25" x="97.07" y="20.21" width="3.22" height="2.58"/>
    <rect class="cls-25" x="93.84" y="20.21" width="3.22" height="2.58"/>
    <rect class="cls-36" x="90.62" y="20.21" width="3.23" height="2.58"/>
    <rect class="cls-36" x="87.39" y="20.21" width="3.22" height="2.58"/>
    <rect class="cls-5" x="84.17" y="20.21" width="3.23" height="2.58"/>
    <rect class="cls-5" x="80.94" y="20.21" width="3.22" height="2.58"/>
    <rect class="cls-5" x="77.72" y="20.21" width="3.23" height="2.58"/>
    <rect class="cls-5" x="74.49" y="20.21" width="3.22" height="2.58"/>
    <rect class="cls-5" x="71.27" y="20.21" width="3.22" height="2.58"/>
    <rect class="cls-5" x="68.69" y="20.02" width="3.23" height="2.42"/>
    <rect class="cls-5" x="65.46" y="20.02" width="3.22" height="2.42"/>
    <rect class="cls-5" x="62.24" y="20.02" width="3.23" height="2.42"/>
    <rect class="cls-5" x="59.01" y="20.02" width="3.22" height="2.42"/>
    <rect class="cls-5" x="55.79" y="20.02" width="3.22" height="2.42"/>
    <rect class="cls-36" x="52.56" y="20.02" width="3.23" height="2.42"/>
    <rect class="cls-36" x="50.37" y="20.02" width="11.87" height="2.42"/>
    <rect class="cls-36" x="40.58" y="20.06" width="11.87" height="2.42"/>
    <rect class="cls-36" x="37.33" y="20.06" width="3.25" height="2.42"/>
    <rect class="cls-36" x="34.09" y="20.06" width="3.25" height="2.42"/>
    <rect class="cls-36" x="30.84" y="20.06" width="3.25" height="2.42"/>
    <rect class="cls-36" x="27.59" y="20.06" width="3.25" height="2.42"/>
    <rect class="cls-25" x="24.35" y="20.06" width="3.25" height="2.42"/>
    <rect class="cls-45" x="21.1" y="20.06" width="3.25" height="2.42"/>
    <rect class="cls-45" x="116.42" y="17.63" width="3.23" height="2.58"/>
    <rect class="cls-36" x="113.19" y="17.63" width="3.22" height="2.58"/>
    <rect class="cls-5" x="109.97" y="17.63" width="3.22" height="2.58"/>
    <rect class="cls-5" x="106.74" y="17.63" width="3.23" height="2.58"/>
    <rect class="cls-5" x="103.52" y="17.63" width="3.22" height="2.58"/>
    <rect class="cls-36" x="100.29" y="17.63" width="3.23" height="2.58"/>
    <rect class="cls-25" x="97.07" y="17.63" width="3.22" height="2.58"/>
    <rect class="cls-36" x="93.84" y="17.63" width="3.22" height="2.58"/>
    <rect class="cls-36" x="90.62" y="17.63" width="3.23" height="2.58"/>
    <rect class="cls-36" x="87.39" y="17.63" width="3.22" height="2.58"/>
    <rect class="cls-5" x="84.17" y="17.63" width="3.23" height="2.58"/>
    <rect class="cls-5" x="80.94" y="17.63" width="3.22" height="2.58"/>
    <rect class="cls-5" x="77.72" y="17.63" width="3.23" height="2.58"/>
    <rect class="cls-5" x="74.49" y="17.63" width="3.22" height="2.58"/>
    <rect class="cls-5" x="71.27" y="17.63" width="3.22" height="2.58"/>
    <rect class="cls-5" x="68.69" y="17.6" width="3.23" height="2.42"/>
    <rect class="cls-36" x="65.46" y="17.6" width="3.22" height="2.42"/>
    <rect class="cls-5" x="62.24" y="17.6" width="3.23" height="2.42"/>
    <rect class="cls-36" x="59.01" y="17.6" width="3.22" height="2.42"/>
    <rect class="cls-5" x="55.79" y="17.6" width="3.22" height="2.42"/>
    <rect class="cls-5" x="52.56" y="17.6" width="3.23" height="2.42"/>
    <rect class="cls-36" x="50.37" y="17.6" width="11.87" height="2.42"/>
    <rect class="cls-36" x="40.58" y="17.64" width="11.87" height="2.42"/>
    <rect class="cls-36" x="37.33" y="17.64" width="3.25" height="2.42"/>
    <rect class="cls-36" x="34.09" y="17.64" width="3.25" height="2.42"/>
    <rect class="cls-36" x="30.84" y="17.64" width="3.25" height="2.42"/>
    <rect class="cls-46" x="27.59" y="17.64" width="3.25" height="2.42"/>
    <rect class="cls-45" x="24.35" y="17.64" width="3.25" height="2.42"/>
    <rect class="cls-45" x="116.42" y="15.05" width="3.23" height="2.58"/>
    <rect class="cls-5" x="113.19" y="15.05" width="3.22" height="2.58"/>
    <rect class="cls-5" x="109.97" y="15.05" width="3.22" height="2.58"/>
    <rect class="cls-5" x="106.74" y="15.05" width="3.23" height="2.58"/>
    <rect class="cls-5" x="103.52" y="15.05" width="3.22" height="2.58"/>
    <rect class="cls-36" x="100.29" y="15.05" width="3.23" height="2.58"/>
    <rect class="cls-36" x="97.07" y="15.05" width="3.22" height="2.58"/>
    <rect class="cls-36" x="93.84" y="15.05" width="3.22" height="2.58"/>
    <rect class="cls-36" x="90.62" y="15.05" width="3.23" height="2.58"/>
    <rect class="cls-5" x="87.39" y="15.05" width="3.22" height="2.58"/>
    <rect class="cls-36" x="84.17" y="15.05" width="3.23" height="2.58"/>
    <rect class="cls-5" x="80.94" y="15.05" width="3.22" height="2.58"/>
    <rect class="cls-5" x="77.72" y="15.05" width="3.23" height="2.58"/>
    <rect class="cls-5" x="74.49" y="15.05" width="3.22" height="2.58"/>
    <rect class="cls-45" x="68.69" y="15.19" width="3.23" height="2.42"/>
    <rect class="cls-45" x="65.46" y="15.19" width="3.22" height="2.42"/>
    <rect class="cls-45" x="62.24" y="15.19" width="3.23" height="2.42"/>
    <rect class="cls-45" x="59.01" y="15.19" width="3.22" height="2.42"/>
    <rect class="cls-45" x="55.79" y="15.19" width="3.22" height="2.42"/>
    <rect class="cls-45" x="52.56" y="15.19" width="3.23" height="2.42"/>
    <rect class="cls-45" x="50.37" y="15.19" width="11.87" height="2.42"/>
    <rect class="cls-45" x="40.58" y="15.22" width="11.87" height="2.42"/>
    <rect class="cls-45" x="37.33" y="15.22" width="3.25" height="2.42"/>
    <rect class="cls-45" x="34.09" y="15.22" width="3.25" height="2.42"/>
    <rect class="cls-45" x="30.84" y="15.22" width="3.25" height="2.42"/>
    <rect class="cls-47" x="27.59" y="15.22" width="3.25" height="2.42"/>
    <rect class="cls-45" x="116.42" y="12.47" width="3.23" height="2.58"/>
    <rect class="cls-5" x="113.19" y="12.47" width="3.22" height="2.58"/>
    <rect class="cls-5" x="109.97" y="12.47" width="3.22" height="2.58"/>
    <rect class="cls-5" x="106.74" y="12.47" width="3.23" height="2.58"/>
    <rect class="cls-5" x="103.52" y="12.47" width="3.22" height="2.58"/>
    <rect class="cls-36" x="100.29" y="12.47" width="3.23" height="2.58"/>
    <rect class="cls-36" x="97.07" y="12.47" width="3.22" height="2.58"/>
    <rect class="cls-36" x="93.84" y="12.47" width="3.22" height="2.58"/>
    <rect class="cls-36" x="90.62" y="12.47" width="3.23" height="2.58"/>
    <rect class="cls-36" x="87.39" y="12.47" width="3.22" height="2.58"/>
    <rect class="cls-36" x="84.17" y="12.47" width="3.23" height="2.58"/>
    <rect class="cls-5" x="80.94" y="12.47" width="3.22" height="2.58"/>
    <rect class="cls-5" x="77.72" y="12.47" width="3.23" height="2.58"/>
    <rect class="cls-36" x="74.49" y="12.47" width="3.22" height="2.58"/>
    <rect class="cls-45" x="116.42" y="9.89" width="3.23" height="2.58"/>
    <rect class="cls-36" x="113.19" y="9.89" width="3.22" height="2.58"/>
    <rect class="cls-5" x="109.97" y="9.89" width="3.22" height="2.58"/>
    <rect class="cls-5" x="106.74" y="9.89" width="3.23" height="2.58"/>
    <rect class="cls-36" x="103.52" y="9.89" width="3.22" height="2.58"/>
    <rect class="cls-36" x="100.29" y="9.89" width="3.23" height="2.58"/>
    <rect class="cls-36" x="97.07" y="9.89" width="3.22" height="2.58"/>
    <rect class="cls-36" x="93.84" y="9.89" width="3.22" height="2.58"/>
    <rect class="cls-36" x="90.62" y="9.89" width="3.23" height="2.58"/>
    <rect class="cls-36" x="87.39" y="9.89" width="3.22" height="2.58"/>
    <rect class="cls-36" x="84.17" y="9.89" width="3.23" height="2.58"/>
    <rect class="cls-25" x="80.94" y="9.89" width="3.22" height="2.58"/>
    <rect class="cls-36" x="77.72" y="9.89" width="3.23" height="2.58"/>
    <rect class="cls-45" x="113.19" y="7.3" width="3.22" height="2.58"/>
    <rect class="cls-5" x="106.74" y="7.3" width="3.23" height="2.58"/>
    <rect class="cls-5" x="103.52" y="7.3" width="3.22" height="2.58"/>
    <rect class="cls-36" x="100.29" y="7.3" width="3.23" height="2.58"/>
    <rect class="cls-36" x="97.07" y="7.3" width="3.22" height="2.58"/>
    <rect class="cls-36" x="93.84" y="7.3" width="3.22" height="2.58"/>
    <rect class="cls-36" x="90.62" y="7.3" width="3.23" height="2.58"/>
    <polygon class="cls-5" points="94.66 7.39 96.5 5.48 93.94 4.11 92.1 6.02 94.66 7.39"/>
    <polygon class="cls-33" points="92.82 9.3 94.66 7.39 92.1 6.02 90.26 7.93 92.82 9.3"/>
    <polygon class="cls-26" points="90.98 11.21 92.82 9.3 90.26 7.93 88.41 9.84 90.98 11.21"/>
    <polygon class="cls-11" points="89.14 13.12 90.98 11.21 88.41 9.84 86.57 11.75 89.14 13.12"/>
    <polygon class="cls-1" points="87.3 15.02 89.14 13.12 86.57 11.75 84.73 13.65 87.3 15.02"/>
    <polygon class="cls-45" points="85.45 16.93 87.3 15.02 84.73 13.65 82.89 15.56 85.45 16.93"/>
    <rect class="cls-45" x="113.19" y="4.72" width="3.22" height="2.58"/>
    <rect class="cls-25" x="109.97" y="4.72" width="3.22" height="2.58"/>
    <rect class="cls-25" x="106.74" y="4.72" width="3.23" height="2.58"/>
    <rect class="cls-25" x="103.52" y="4.72" width="3.22" height="2.58"/>
    <rect class="cls-25" x="100.29" y="4.72" width="3.23" height="2.58"/>
    <rect class="cls-25" x="97.07" y="4.72" width="3.22" height="2.58"/>
    <rect class="cls-25" x="93.84" y="4.72" width="3.22" height="2.58"/>
    <rect class="cls-40" x="90.62" y="4.72" width="3.23" height="2.58"/>
    <polygon class="cls-5" points="92.1 6.02 93.94 4.11 91.38 2.74 89.53 4.65 92.1 6.02"/>
    <polygon class="cls-33" points="90.26 7.93 92.1 6.02 89.53 4.65 87.69 6.56 90.26 7.93"/>
    <polygon class="cls-32" points="88.41 9.84 90.26 7.93 87.69 6.56 85.85 8.47 88.41 9.84"/>
    <polygon class="cls-43" points="86.57 11.75 88.41 9.84 85.85 8.47 84.01 10.37 86.57 11.75"/>
    <polygon class="cls-1" points="84.73 13.65 86.57 11.75 84.01 10.37 82.17 12.28 84.73 13.65"/>
    <polygon class="cls-45" points="82.89 15.56 84.73 13.65 82.17 12.28 80.32 14.19 82.89 15.56"/>
    <rect class="cls-45" x="113.19" y="2.14" width="3.22" height="2.58"/>
    <rect class="cls-45" x="109.97" y="2.14" width="3.22" height="2.58"/>
    <rect class="cls-45" x="106.74" y="2.14" width="3.23" height="2.58"/>
    <rect class="cls-45" x="103.52" y="2.14" width="3.22" height="2.58"/>
    <rect class="cls-45" x="100.29" y="2.14" width="3.23" height="2.58"/>
    <rect class="cls-45" x="97.07" y="2.14" width="3.22" height="2.58"/>
    <rect class="cls-45" x="93.84" y="2.14" width="3.22" height="2.58"/>
    <rect class="cls-45" x="90.62" y="2.14" width="3.23" height="2.58"/>
    <rect class="cls-28" x="87.39" y="2.14" width="3.22" height="2.58"/>
    <polygon class="cls-7" points="87.69 6.56 89.53 4.65 86.97 3.28 85.13 5.19 87.69 6.56"/>
    <polygon class="cls-21" points="85.85 8.47 87.69 6.56 85.13 5.19 83.29 7.1 85.85 8.47"/>
    <polygon class="cls-26" points="84.01 10.37 85.85 8.47 83.29 7.1 81.44 9 84.01 10.37"/>
    <polygon class="cls-43" points="82.17 12.28 84.01 10.37 81.44 9 79.6 10.91 82.17 12.28"/>
    <polygon class="cls-45" points="80.32 14.19 82.17 12.28 79.6 10.91 77.76 12.82 80.32 14.19"/>
    <polygon class="cls-45" points="86.97 3.28 88.81 1.37 86.25 0 84.41 1.91 86.97 3.28"/>
    <polygon class="cls-37" points="85.13 5.19 86.97 3.28 84.41 1.91 82.56 3.82 85.13 5.19"/>
    <polygon class="cls-34" points="83.29 7.1 85.13 5.19 82.56 3.82 80.72 5.72 83.29 7.1"/>
    <polygon class="cls-45" points="81.44 9 83.29 7.1 80.72 5.72 78.88 7.63 81.44 9"/>
    <polygon class="cls-43" points="79.6 10.91 81.44 9 78.88 7.63 77.04 9.54 79.6 10.91"/>
    <polygon class="cls-45" points="77.76 12.82 79.6 10.91 77.04 9.54 75.2 11.45 77.76 12.82"/>
    <polygon class="cls-21" points="82.56 3.82 84.41 1.91 81.84 .54 80 2.45 82.56 3.82"/>
    <polygon class="cls-42" points="80.72 5.72 82.56 3.82 80 2.45 78.16 4.35 80.72 5.72"/>
    <polygon class="cls-41" points="77.04 9.54 78.88 7.63 76.32 6.26 74.47 8.17 77.04 9.54"/>
    <polygon class="cls-45" points="75.2 11.45 77.04 9.54 74.47 8.17 72.63 10.08 75.2 11.45"/>
    <polygon class="cls-45" points="76.32 6.26 78.16 4.35 75.59 2.98 73.75 4.89 76.32 6.26"/>
    <polygon class="cls-5" points="74.47 8.17 76.32 6.26 73.75 4.89 71.91 6.8 74.47 8.17"/>
    <polygon class="cls-45" points="72.63 10.08 74.47 8.17 71.91 6.8 70.07 8.71 72.63 10.08"/>
    <polygon class="cls-6" points="73.75 4.89 75.59 2.98 73.03 1.61 71.19 3.52 73.75 4.89"/>
    <polygon class="cls-13" points="71.91 6.8 73.75 4.89 71.19 3.52 69.34 5.43 71.91 6.8"/>
    <polygon class="cls-45" points="70.07 8.71 71.91 6.8 69.34 5.43 67.5 7.34 70.07 8.71"/>
    <polygon class="cls-45" points="69.34 5.43 71.19 3.52 68.62 2.15 66.78 4.06 69.34 5.43"/>
    <polygon class="cls-45" points="67.5 7.34 69.34 5.43 66.78 4.06 64.94 5.97 67.5 7.34"/>
    <polygon class="cls-5" points="89.89 13.32 91.69 11.39 89.1 10.05 87.29 11.98 89.89 13.32"/>
    <polygon class="cls-33" points="88.08 15.25 89.89 13.32 87.29 11.98 85.49 13.91 88.08 15.25"/>
    <polygon class="cls-26" points="86.28 17.18 88.08 15.25 85.49 13.91 83.69 15.84 86.28 17.18"/>
    <polygon class="cls-11" points="84.48 19.11 86.28 17.18 83.69 15.84 81.89 17.77 84.48 19.11"/>
    <polygon class="cls-1" points="82.67 21.04 84.48 19.11 81.89 17.77 80.08 19.7 82.67 21.04"/>
    <polygon class="cls-5" points="87.29 11.98 89.1 10.05 86.51 8.71 84.7 10.64 87.29 11.98"/>
    <polygon class="cls-33" points="85.49 13.91 87.29 11.98 84.7 10.64 82.9 12.57 85.49 13.91"/>
    <polygon class="cls-32" points="83.69 15.84 85.49 13.91 82.9 12.57 81.1 14.5 83.69 15.84"/>
    <polygon class="cls-43" points="81.89 17.77 83.69 15.84 81.1 14.5 79.29 16.43 81.89 17.77"/>
    <polygon class="cls-1" points="80.08 19.7 81.89 17.77 79.29 16.43 77.49 18.35 80.08 19.7"/>
    <polygon class="cls-45" points="78.28 21.63 80.08 19.7 77.49 18.35 75.69 20.28 78.28 21.63"/>
    <polygon class="cls-7" points="82.9 12.57 84.7 10.64 82.11 9.3 80.31 11.23 82.9 12.57"/>
    <polygon class="cls-21" points="81.1 14.5 82.9 12.57 80.31 11.23 78.5 13.16 81.1 14.5"/>
    <polygon class="cls-26" points="79.29 16.43 81.1 14.5 78.5 13.16 76.7 15.08 79.29 16.43"/>
    <polygon class="cls-43" points="77.49 18.35 79.29 16.43 76.7 15.08 74.9 17.01 77.49 18.35"/>
    <polygon class="cls-45" points="75.69 20.28 77.49 18.35 74.9 17.01 73.1 18.94 75.69 20.28"/>
    <polygon class="cls-45" points="82.11 9.3 83.91 7.37 81.32 6.03 79.52 7.96 82.11 9.3"/>
    <polygon class="cls-37" points="80.31 11.23 82.11 9.3 79.52 7.96 77.72 9.89 80.31 11.23"/>
    <polygon class="cls-34" points="78.5 13.16 80.31 11.23 77.72 9.89 75.91 11.81 78.5 13.16"/>
    <polygon class="cls-45" points="76.7 15.08 78.5 13.16 75.91 11.81 74.11 13.74 76.7 15.08"/>
    <polygon class="cls-43" points="74.9 17.01 76.7 15.08 74.11 13.74 72.31 15.67 74.9 17.01"/>
    <polygon class="cls-45" points="73.1 18.94 74.9 17.01 72.31 15.67 70.5 17.6 73.1 18.94"/>
    <polygon class="cls-21" points="77.72 9.89 79.52 7.96 76.93 6.61 75.12 8.54 77.72 9.89"/>
    <polygon class="cls-42" points="75.91 11.81 77.72 9.89 75.12 8.54 73.32 10.47 75.91 11.81"/>
    <polygon class="cls-41" points="72.31 15.67 74.11 13.74 71.52 12.4 69.72 14.33 72.31 15.67"/>
    <polygon class="cls-45" points="70.5 17.6 72.31 15.67 69.72 14.33 67.91 16.26 70.5 17.6"/>
    <polygon class="cls-45" points="71.52 12.4 73.32 10.47 70.73 9.13 68.93 11.06 71.52 12.4"/>
    <polygon class="cls-5" points="69.72 14.33 71.52 12.4 68.93 11.06 67.12 12.99 69.72 14.33"/>
    <polygon class="cls-45" points="67.91 16.26 69.72 14.33 67.12 12.99 65.32 14.92 67.91 16.26"/>
    <polygon class="cls-6" points="68.93 11.06 70.73 9.13 68.14 7.79 66.33 9.72 68.93 11.06"/>
    <polygon class="cls-13" points="67.12 12.99 68.93 11.06 66.33 9.72 64.53 11.65 67.12 12.99"/>
    <polygon class="cls-45" points="65.32 14.92 67.12 12.99 64.53 11.65 62.73 13.57 65.32 14.92"/>
    <polygon class="cls-45" points="64.53 11.65 66.33 9.72 63.74 8.38 61.94 10.3 64.53 11.65"/>
    <polygon class="cls-45" points="62.73 13.57 64.53 11.65 61.94 10.3 60.14 12.23 62.73 13.57"/>
    <rect class="cls-45" x="97.07" y="25.37" width="3.23" height="2.58"/>
    <rect class="cls-45" x="93.84" y="25.37" width="3.22" height="2.58"/>
    <rect class="cls-45" x="109.97" y="25.37" width="4.84" height="2.58"/>
    <rect class="cls-45" x="105.13" y="25.37" width="4.84" height="2.58"/>
    <rect class="cls-25" x="109.97" y="22.79" width="3.22" height="2.58"/>
    <rect class="cls-25" x="109.97" y="20.21" width="3.22" height="2.58"/>
    <rect class="cls-21" x="44.98" y="45.79" width="3.23" height="3.22"/>
    <rect class="cls-41" x="41.75" y="45.79" width="3.22" height="3.22"/>
    <rect class="cls-21" x="38.53" y="45.79" width="3.23" height="3.22"/>
    <rect class="cls-21" x="35.3" y="45.79" width="3.22" height="3.22"/>
    <rect class="cls-21" x="32.08" y="45.79" width="3.22" height="3.22"/>
    <rect class="cls-41" x="28.85" y="45.79" width="3.23" height="3.22"/>
    <rect class="cls-21" x="25.63" y="45.79" width="3.22" height="3.22"/>
    <rect class="cls-45" x="44.98" y="42.57" width="3.23" height="3.23"/>
    <rect class="cls-40" x="41.75" y="42.57" width="3.22" height="3.23"/>
    <rect class="cls-45" x="38.53" y="42.57" width="3.23" height="3.23"/>
    <rect class="cls-39" x="35.3" y="42.57" width="3.22" height="3.23"/>
    <rect class="cls-14" x="32.08" y="42.57" width="3.22" height="3.23"/>
    <rect class="cls-22" x="28.85" y="42.57" width="3.23" height="3.23"/>
    <rect class="cls-2" x="25.63" y="42.57" width="3.22" height="3.23"/>
    <rect class="cls-18" x="44.98" y="39.34" width="3.23" height="3.23"/>
    <rect class="cls-17" x="41.75" y="39.34" width="3.22" height="3.23"/>
    <rect class="cls-4" x="38.53" y="39.34" width="3.23" height="3.23"/>
    <rect class="cls-38" x="35.3" y="39.34" width="3.22" height="3.23"/>
    <rect class="cls-10" x="32.08" y="39.34" width="3.22" height="3.23"/>
    <rect class="cls-5" x="28.85" y="39.34" width="3.23" height="3.23"/>
    <rect class="cls-5" x="25.63" y="39.34" width="3.22" height="3.23"/>
    <rect class="cls-45" x="41.75" y="36.12" width="3.22" height="3.23"/>
    <rect class="cls-5" x="38.53" y="36.12" width="3.23" height="3.23"/>
    <rect class="cls-23" x="35.3" y="36.12" width="3.22" height="3.23"/>
    <rect class="cls-45" x="32.08" y="36.12" width="3.22" height="3.23"/>
    <rect class="cls-5" x="28.85" y="36.12" width="3.23" height="3.23"/>
    <rect class="cls-5" x="25.63" y="36.12" width="3.22" height="3.23"/>
    <rect class="cls-45" x="45.79" y="38.37" width="3.22" height="2.58"/>
    <rect class="cls-21" x="45.79" y="35.79" width="3.22" height="2.58"/>
    <rect class="cls-5" x="28.8" y="34.64" width="4.93" height="2.42"/>
    <rect class="cls-5" x="23.86" y="34.64" width="4.93" height="2.42"/>
  </g>
</svg>