<?xml version="1.0" encoding="UTF-8"?>
<svg id="_레이어_2" data-name="레이어 2" xmlns="http://www.w3.org/2000/svg" viewBox="0 0 152.67 97.79">
  <defs>
    <style>
      .cls-1 {
        fill: #2c2522;
      }

      .cls-2 {
        fill: #a9aaaa;
      }

      .cls-3 {
        fill: #2a2320;
      }

      .cls-4 {
        fill: #494747;
      }

      .cls-5 {
        fill: #a4a5a5;
      }

      .cls-6 {
        fill: #fdfdfe;
      }

      .cls-7 {
        fill: #dbdcdc;
      }

      .cls-8 {
        fill: #484646;
      }

      .cls-9 {
        fill: #edeeee;
      }

      .cls-10 {
        fill: #3e3c3a;
      }

      .cls-11 {
        fill: #3d3a39;
      }

      .cls-12 {
        fill: #d9dada;
      }

      .cls-13 {
        fill: #d1d1d2;
      }

      .cls-14 {
        fill: #a2a3a3;
      }

      .cls-15 {
        fill: #211816;
      }

      .cls-16 {
        fill: #9fa0a0;
      }

      .cls-17 {
        fill: #8e8e8e;
      }

      .cls-18 {
        fill: #f4f4f4;
      }

      .cls-19 {
        fill: #444241;
      }

      .cls-20 {
        fill: #a6a7a7;
      }

      .cls-21 {
        fill: #434140;
      }

      .cls-22 {
        fill: #f8f9f9;
      }

      .cls-23 {
        fill: #dedfdf;
      }

      .cls-24 {
        fill: #4d4b4a;
      }

      .cls-25 {
        fill: #ebeceb;
      }

      .cls-26 {
        fill: #f9fafa;
      }

      .cls-27 {
        fill: #251e1b;
      }

      .cls-28 {
        fill: #d0d0d1;
      }

      .cls-29 {
        fill: #28211f;
      }

      .cls-30 {
        fill: #474544;
      }

      .cls-31 {
        fill: #a8a9a9;
      }

      .cls-32 {
        fill: #dadadb;
      }

      .cls-33 {
        fill: #898989;
      }

      .cls-34 {
        fill: #6e6d6d;
      }

      .cls-35 {
        fill: #fff;
      }

      .cls-36 {
        fill: #2d2623;
      }

      .cls-37 {
        fill: #35312f;
      }

      .cls-38 {
        fill: #231b19;
      }

      .cls-39 {
        fill: #dcdddd;
      }

      .cls-40 {
        fill: #878787;
      }

      .cls-41 {
        fill: #f3f4f4;
      }

      .cls-42 {
        fill: #595757;
      }

      .cls-43 {
        fill: #cececf;
      }

      .cls-44 {
        fill: #f4f5f5;
      }

      .cls-45 {
        fill: #221a18;
      }

      .cls-46 {
        fill: #34302e;
      }

      .cls-47 {
        fill: #7f7e7f;
      }

      .cls-48 {
        fill: #fefefe;
      }

      .cls-49 {
        fill: #f7f7f7;
      }

      .cls-50 {
        fill: #5e5d5d;
      }

      .cls-51 {
        fill: #d9d9da;
      }

      .cls-52 {
        fill: #302a28;
      }

      .cls-53 {
        fill: #a5a6a6;
      }

      .cls-54 {
        fill: #3c3938;
      }

      .cls-55 {
        fill: #a1a2a2;
      }

      .cls-56 {
        fill: #838383;
      }

      .cls-57 {
        fill: #454342;
      }

      .cls-58 {
        fill: #312c2a;
      }

      .cls-59 {
        fill: #271f1c;
      }

      .cls-60 {
        fill: #52504f;
      }

      .cls-61 {
        fill: #a0a1a1;
      }

      .cls-62 {
        fill: #b5b6b6;
      }

      .cls-63 {
        fill: #241c1a;
      }

      .cls-64 {
        fill: #fbfbfb;
      }

      .cls-65 {
        fill: #f5f6f6;
      }

      .cls-66 {
        fill: #201715;
      }

      .cls-67 {
        fill: #a7a8a8;
      }

      .cls-68 {
        fill: #8a8b8b;
      }
    </style>
  </defs>
  <g id="_레이어_1-2" data-name="레이어 1">
    <rect class="cls-29" x="78.72" y="92.29" width="2.23" height="3.8" transform="translate(-10.21 9.71) rotate(-6.54)"/>
    <rect class="cls-59" x="78.29" y="88.52" width="2.23" height="3.8" transform="translate(-9.78 9.64) rotate(-6.54)"/>
    <rect class="cls-29" x="77.86" y="84.74" width="2.23" height="3.8" transform="translate(-9.36 9.56) rotate(-6.54)"/>
    <rect class="cls-29" x="77.42" y="80.97" width="2.23" height="3.8" transform="translate(-8.93 9.49) rotate(-6.54)"/>
    <rect class="cls-29" x="76.99" y="77.2" width="2.23" height="3.8" transform="translate(-8.5 9.41) rotate(-6.54)"/>
    <rect class="cls-59" x="76.56" y="73.43" width="2.23" height="3.8" transform="translate(-8.08 9.34) rotate(-6.54)"/>
    <rect class="cls-29" x="76.13" y="69.65" width="2.23" height="3.8" transform="translate(-7.65 9.27) rotate(-6.54)"/>
    <rect class="cls-65" x="75.69" y="65.88" width="2.23" height="3.8" transform="translate(-7.22 9.19) rotate(-6.54)"/>
    <rect class="cls-1" x="52.81" y="85.18" width="3.25" height="3.22" transform="translate(-13.69 10.27) rotate(-9.58)"/>
    <rect class="cls-36" x="49.61" y="85.72" width="3.25" height="3.22" transform="translate(-13.82 9.75) rotate(-9.58)"/>
    <rect class="cls-57" x="46.41" y="86.26" width="3.25" height="3.22" transform="translate(-13.96 9.22) rotate(-9.58)"/>
    <rect class="cls-66" x="80.94" y="92.04" width="2.23" height="3.8" transform="translate(-10.17 9.96) rotate(-6.54)"/>
    <rect class="cls-53" x="80.51" y="88.26" width="2.23" height="3.8" transform="translate(-9.74 9.89) rotate(-6.54)"/>
    <rect class="cls-66" x="80.08" y="84.49" width="2.23" height="3.8" transform="translate(-9.31 9.81) rotate(-6.54)"/>
    <rect class="cls-52" x="79.64" y="80.72" width="2.23" height="3.8" transform="translate(-8.89 9.74) rotate(-6.54)"/>
    <rect class="cls-20" x="79.21" y="76.95" width="2.23" height="3.8" transform="translate(-8.46 9.67) rotate(-6.54)"/>
    <rect class="cls-31" x="78.78" y="73.17" width="2.23" height="3.8" transform="translate(-8.03 9.59) rotate(-6.54)"/>
    <rect class="cls-2" x="78.35" y="69.4" width="2.23" height="3.8" transform="translate(-7.61 9.52) rotate(-6.54)"/>
    <rect class="cls-40" x="77.91" y="65.63" width="2.23" height="3.8" transform="translate(-7.18 9.44) rotate(-6.54)"/>
    <rect class="cls-51" x="77.48" y="61.85" width="2.23" height="3.8" transform="translate(-6.75 9.37) rotate(-6.54)"/>
    <rect class="cls-31" x="52.28" y="82" width="3.25" height="3.23" transform="translate(-13.17 10.14) rotate(-9.58)"/>
    <rect class="cls-31" x="49.08" y="82.54" width="3.25" height="3.23" transform="translate(-13.3 9.61) rotate(-9.58)"/>
    <rect class="cls-14" x="45.87" y="83.08" width="3.25" height="3.23" transform="translate(-13.44 9.09) rotate(-9.58)"/>
    <rect class="cls-56" x="42.67" y="83.62" width="3.25" height="3.23" transform="translate(-13.57 8.56) rotate(-9.58)"/>
    <rect class="cls-24" x="83.16" y="91.78" width="2.23" height="3.8" transform="translate(-10.12 10.21) rotate(-6.54)"/>
    <rect class="cls-23" x="82.73" y="88.01" width="2.23" height="3.8" transform="translate(-9.7 10.14) rotate(-6.54)"/>
    <rect class="cls-4" x="82.29" y="84.24" width="2.23" height="3.8" transform="translate(-9.27 10.06) rotate(-6.54)"/>
    <rect class="cls-50" x="81.86" y="80.46" width="2.23" height="3.8" transform="translate(-8.84 9.99) rotate(-6.54)"/>
    <rect class="cls-12" x="81.43" y="76.69" width="2.23" height="3.8" transform="translate(-8.42 9.92) rotate(-6.54)"/>
    <rect class="cls-6" x="81" y="72.92" width="2.23" height="3.8" transform="translate(-7.99 9.84) rotate(-6.54)"/>
    <rect class="cls-6" x="80.56" y="69.15" width="2.23" height="3.8" transform="translate(-7.56 9.77) rotate(-6.54)"/>
    <rect class="cls-42" x="80.13" y="65.37" width="2.23" height="3.8" transform="translate(-7.14 9.69) rotate(-6.54)"/>
    <rect class="cls-20" x="79.7" y="61.6" width="2.23" height="3.8" transform="translate(-6.71 9.62) rotate(-6.54)"/>
    <rect class="cls-24" x="62.31" y="59.91" width="3.25" height="3.22" transform="translate(-7.29 114.43) rotate(-80.51)"/>
    <rect class="cls-46" x="61.78" y="63.11" width="3.25" height="3.22" transform="translate(-10.89 116.58) rotate(-80.51)"/>
    <rect class="cls-60" x="61.24" y="66.31" width="3.25" height="3.22" transform="translate(-14.5 118.72) rotate(-80.51)"/>
    <rect class="cls-60" x="54.94" y="78.28" width="3.25" height="3.22" transform="translate(-12.51 10.53) rotate(-9.58)"/>
    <rect class="cls-25" x="48.54" y="79.36" width="3.25" height="3.23" transform="translate(-12.78 9.48) rotate(-9.58)"/>
    <rect class="cls-13" x="45.34" y="79.9" width="3.25" height="3.22" transform="translate(-12.91 8.96) rotate(-9.58)"/>
    <rect class="cls-24" x="42.14" y="80.44" width="3.25" height="3.22" transform="translate(-13.05 8.43) rotate(-9.58)"/>
    <rect class="cls-66" x="84.95" y="87.75" width="2.23" height="3.8" transform="translate(-9.65 10.39) rotate(-6.54)"/>
    <rect class="cls-6" x="84.51" y="83.98" width="2.23" height="3.8" transform="translate(-9.23 10.32) rotate(-6.54)"/>
    <rect class="cls-32" x="84.08" y="80.21" width="2.23" height="3.8" transform="translate(-8.8 10.24) rotate(-6.54)"/>
    <rect class="cls-66" x="83.65" y="76.44" width="2.23" height="3.8" transform="translate(-8.37 10.17) rotate(-6.54)"/>
    <rect class="cls-6" x="83.22" y="72.66" width="2.23" height="3.8" transform="translate(-7.95 10.09) rotate(-6.54)"/>
    <rect class="cls-6" x="82.78" y="68.89" width="2.23" height="3.8" transform="translate(-7.52 10.02) rotate(-6.54)"/>
    <rect class="cls-6" x="82.35" y="65.12" width="2.23" height="3.8" transform="translate(-7.09 9.95) rotate(-6.54)"/>
    <rect class="cls-34" x="81.92" y="61.35" width="2.23" height="3.8" transform="translate(-6.66 9.87) rotate(-6.54)"/>
    <rect class="cls-66" x="81.49" y="57.57" width="2.23" height="3.8" transform="translate(-6.24 9.8) rotate(-6.54)"/>
    <rect class="cls-66" x="81.05" y="53.8" width="2.23" height="3.8" transform="translate(-5.81 9.72) rotate(-6.54)"/>
    <rect class="cls-66" x="77.31" y="51.37" width="3.23" height="3.22" transform="translate(-5.52 9.34) rotate(-6.54)"/>
    <rect class="cls-66" x="76.95" y="48.16" width="3.23" height="3.23" transform="translate(-5.16 9.27) rotate(-6.54)"/>
    <rect class="cls-66" x="76.58" y="44.96" width="3.23" height="3.22" transform="translate(-4.8 9.21) rotate(-6.54)"/>
    <rect class="cls-66" x="57.14" y="45.52" width="11.87" height="3.23" transform="translate(6.19 101.56) rotate(-80.51)"/>
    <rect class="cls-66" x="60.2" y="52.97" width="3.25" height="3.23" transform="translate(-2.21 106.56) rotate(-80.51)"/>
    <rect class="cls-66" x="59.67" y="56.17" width="3.25" height="3.23" transform="translate(-5.81 108.7) rotate(-80.51)"/>
    <rect class="cls-66" x="59.13" y="59.37" width="3.25" height="3.23" transform="translate(-9.42 110.85) rotate(-80.51)"/>
    <rect class="cls-17" x="58.6" y="62.57" width="3.25" height="3.23" transform="translate(-13.02 112.99) rotate(-80.51)"/>
    <rect class="cls-48" x="58.06" y="65.78" width="3.25" height="3.22" transform="translate(-16.63 115.14) rotate(-80.51)"/>
    <rect class="cls-48" x="54.4" y="75.1" width="3.25" height="3.23" transform="translate(-11.99 10.4) rotate(-9.58)"/>
    <rect class="cls-6" x="51.2" y="75.64" width="3.25" height="3.22" transform="translate(-12.12 9.87) rotate(-9.58)"/>
    <rect class="cls-5" x="48" y="76.18" width="3.25" height="3.23" transform="translate(-12.26 9.35) rotate(-9.58)"/>
    <rect class="cls-37" x="44.8" y="76.72" width="3.25" height="3.23" transform="translate(-12.39 8.82) rotate(-9.58)"/>
    <rect class="cls-66" x="83.82" y="79.84" width="3.23" height="3.23" transform="translate(-8.72 10.26) rotate(-6.54)"/>
    <rect class="cls-11" x="83.46" y="76.63" width="3.23" height="3.22" transform="translate(-8.36 10.2) rotate(-6.54)"/>
    <rect class="cls-66" x="85.44" y="72.41" width="2.23" height="3.8" transform="translate(-7.9 10.34) rotate(-6.54)"/>
    <rect class="cls-6" x="85" y="68.64" width="2.23" height="3.8" transform="translate(-7.48 10.27) rotate(-6.54)"/>
    <rect class="cls-6" x="84.57" y="64.86" width="2.23" height="3.8" transform="translate(-7.05 10.2) rotate(-6.54)"/>
    <rect class="cls-48" x="84.14" y="61.09" width="2.23" height="3.8" transform="translate(-6.62 10.12) rotate(-6.54)"/>
    <rect class="cls-48" x="83.7" y="57.32" width="2.23" height="3.8" transform="translate(-6.19 10.05) rotate(-6.54)"/>
    <rect class="cls-48" x="83.27" y="53.55" width="2.23" height="3.8" transform="translate(-5.77 9.98) rotate(-6.54)"/>
    <rect class="cls-48" x="80.52" y="51" width="3.22" height="3.22" transform="translate(-5.46 9.7) rotate(-6.54)"/>
    <rect class="cls-48" x="80.15" y="47.8" width="3.23" height="3.23" transform="translate(-5.1 9.64) rotate(-6.54)"/>
    <rect class="cls-48" x="79.78" y="44.59" width="3.23" height="3.22" transform="translate(-4.73 9.57) rotate(-6.54)"/>
    <rect class="cls-48" x="53.96" y="44.98" width="11.87" height="3.22" transform="translate(4.05 97.98) rotate(-80.51)"/>
    <rect class="cls-48" x="57.02" y="52.44" width="3.25" height="3.22" transform="translate(-4.34 102.98) rotate(-80.51)"/>
    <rect class="cls-48" x="56.49" y="55.64" width="3.25" height="3.23" transform="translate(-7.94 105.12) rotate(-80.51)"/>
    <rect class="cls-48" x="55.95" y="58.84" width="3.25" height="3.23" transform="translate(-11.55 107.27) rotate(-80.51)"/>
    <rect class="cls-48" x="55.42" y="62.04" width="3.25" height="3.23" transform="translate(-15.15 109.41) rotate(-80.51)"/>
    <rect class="cls-35" x="54.88" y="65.24" width="3.25" height="3.23" transform="translate(-18.76 111.56) rotate(-80.51)"/>
    <rect class="cls-48" x="53.87" y="71.92" width="3.25" height="3.22" transform="translate(-11.47 10.26) rotate(-9.58)"/>
    <rect class="cls-66" x="50.67" y="72.46" width="3.25" height="3.23" transform="translate(-11.6 9.74) rotate(-9.58)"/>
    <rect class="cls-33" x="47.47" y="73" width="3.25" height="3.23" transform="translate(-11.74 9.21) rotate(-9.58)"/>
    <rect class="cls-48" x="44.26" y="73.54" width="3.25" height="3.23" transform="translate(-11.87 8.69) rotate(-9.58)"/>
    <rect class="cls-66" x="25.38" y="62.19" width="3.23" height="4.45" transform="translate(-41.65 51.54) rotate(-56.65)"/>
    <rect class="cls-66" x="21.66" y="59.74" width="3.23" height="4.45" transform="translate(-41.28 47.34) rotate(-56.65)"/>
    <rect class="cls-66" x="17.95" y="57.29" width="3.23" height="4.45" transform="translate(-40.91 43.13) rotate(-56.65)"/>
    <rect class="cls-66" x="14.23" y="54.85" width="3.23" height="4.45" transform="translate(-40.54 38.92) rotate(-56.65)"/>
    <rect class="cls-66" x="10.51" y="52.4" width="3.22" height="4.45" transform="translate(-40.17 34.72) rotate(-56.65)"/>
    <rect class="cls-66" x="6.79" y="49.95" width="3.22" height="4.45" transform="translate(-39.8 30.51) rotate(-56.65)"/>
    <rect class="cls-66" x="3.08" y="47.51" width="3.23" height="4.45" transform="translate(-39.43 26.3) rotate(-56.65)"/>
    <rect class="cls-66" x="88.13" y="89.08" width="3.22" height="3.22" transform="translate(-9.75 10.81) rotate(-6.54)"/>
    <rect class="cls-66" x="87.76" y="85.88" width="3.22" height="3.23" transform="translate(-9.39 10.75) rotate(-6.54)"/>
    <rect class="cls-66" x="87.4" y="82.67" width="3.22" height="3.22" transform="translate(-9.02 10.69) rotate(-6.54)"/>
    <rect class="cls-66" x="87.03" y="79.47" width="3.22" height="3.23" transform="translate(-8.66 10.63) rotate(-6.54)"/>
    <rect class="cls-66" x="86.66" y="76.27" width="3.22" height="3.22" transform="translate(-8.3 10.56) rotate(-6.54)"/>
    <rect class="cls-66" x="86.29" y="73.06" width="3.22" height="3.22" transform="translate(-7.94 10.5) rotate(-6.54)"/>
    <rect class="cls-66" x="85.93" y="69.86" width="3.22" height="3.23" transform="translate(-7.57 10.44) rotate(-6.54)"/>
    <rect class="cls-66" x="85.56" y="66.65" width="3.22" height="3.22" transform="translate(-7.21 10.38) rotate(-6.54)"/>
    <rect class="cls-65" x="85.19" y="63.45" width="3.22" height="3.23" transform="translate(-6.85 10.31) rotate(-6.54)"/>
    <rect class="cls-6" x="84.82" y="60.25" width="3.22" height="3.22" transform="translate(-6.48 10.25) rotate(-6.54)"/>
    <rect class="cls-48" x="84.46" y="57.04" width="3.22" height="3.23" transform="translate(-6.12 10.19) rotate(-6.54)"/>
    <rect class="cls-6" x="84.09" y="53.84" width="3.22" height="3.22" transform="translate(-5.76 10.12) rotate(-6.54)"/>
    <rect class="cls-6" x="83.72" y="50.63" width="3.22" height="3.22" transform="translate(-5.4 10.06) rotate(-6.54)"/>
    <rect class="cls-48" x="83.35" y="47.43" width="3.22" height="3.23" transform="translate(-5.03 10) rotate(-6.54)"/>
    <rect class="cls-6" x="82.99" y="44.23" width="3.22" height="3.22" transform="translate(-4.67 9.94) rotate(-6.54)"/>
    <rect class="cls-48" x="50.78" y="44.45" width="11.87" height="3.22" transform="translate(1.92 94.4) rotate(-80.51)"/>
    <rect class="cls-48" x="53.84" y="51.91" width="3.25" height="3.22" transform="translate(-6.47 99.4) rotate(-80.51)"/>
    <rect class="cls-48" x="53.31" y="55.11" width="3.25" height="3.22" transform="translate(-10.07 101.54) rotate(-80.51)"/>
    <rect class="cls-48" x="52.77" y="58.31" width="3.25" height="3.22" transform="translate(-13.68 103.69) rotate(-80.51)"/>
    <rect class="cls-48" x="52.24" y="61.51" width="3.25" height="3.22" transform="translate(-17.28 105.83) rotate(-80.51)"/>
    <rect class="cls-48" x="51.7" y="64.71" width="3.25" height="3.22" transform="translate(-20.89 107.98) rotate(-80.51)"/>
    <rect class="cls-66" x="53.33" y="68.74" width="3.25" height="3.22" transform="translate(-10.95 10.13) rotate(-9.58)"/>
    <rect class="cls-66" x="50.13" y="69.28" width="3.25" height="3.22" transform="translate(-11.08 9.61) rotate(-9.58)"/>
    <rect class="cls-66" x="46.93" y="69.82" width="3.25" height="3.22" transform="translate(-11.21 9.08) rotate(-9.58)"/>
    <rect class="cls-66" x="43.73" y="70.36" width="3.25" height="3.22" transform="translate(-11.35 8.55) rotate(-9.58)"/>
    <rect class="cls-66" x="40.53" y="70.9" width="3.25" height="3.22" transform="translate(-11.48 8.03) rotate(-9.58)"/>
    <rect class="cls-48" x="27.15" y="59.49" width="3.22" height="4.45" transform="translate(-38.6 51.81) rotate(-56.65)"/>
    <rect class="cls-6" x="23.44" y="57.05" width="3.23" height="4.45" transform="translate(-38.23 47.61) rotate(-56.65)"/>
    <rect class="cls-35" x="19.72" y="54.6" width="3.22" height="4.45" transform="translate(-37.86 43.4) rotate(-56.65)"/>
    <rect class="cls-28" x="16" y="52.15" width="3.22" height="4.45" transform="translate(-37.49 39.19) rotate(-56.65)"/>
    <rect class="cls-66" x="12.28" y="49.71" width="3.22" height="4.45" transform="translate(-37.12 34.99) rotate(-56.65)"/>
    <rect class="cls-6" x="8.57" y="47.26" width="3.22" height="4.45" transform="translate(-36.75 30.78) rotate(-56.65)"/>
    <rect class="cls-6" x="4.85" y="44.81" width="3.22" height="4.45" transform="translate(-36.38 26.57) rotate(-56.65)"/>
    <rect class="cls-66" x="1.13" y="42.36" width="3.22" height="4.45" transform="translate(-36.01 22.37) rotate(-56.65)"/>
    <rect class="cls-29" x="91.33" y="88.71" width="3.23" height="3.22" transform="translate(-9.69 11.18) rotate(-6.54)"/>
    <rect class="cls-59" x="90.97" y="85.51" width="3.22" height="3.23" transform="translate(-9.32 11.11) rotate(-6.54)"/>
    <rect class="cls-29" x="90.6" y="82.31" width="3.22" height="3.22" transform="translate(-8.96 11.05) rotate(-6.54)"/>
    <rect class="cls-3" x="90.23" y="79.1" width="3.22" height="3.23" transform="translate(-8.6 10.99) rotate(-6.54)"/>
    <rect class="cls-29" x="89.86" y="75.9" width="3.22" height="3.22" transform="translate(-8.24 10.93) rotate(-6.54)"/>
    <rect class="cls-29" x="89.5" y="72.69" width="3.23" height="3.22" transform="translate(-7.87 10.86) rotate(-6.54)"/>
    <rect class="cls-29" x="89.13" y="69.49" width="3.23" height="3.23" transform="translate(-7.51 10.8) rotate(-6.54)"/>
    <rect class="cls-29" x="88.76" y="66.29" width="3.23" height="3.22" transform="translate(-7.15 10.74) rotate(-6.54)"/>
    <rect class="cls-49" x="88.39" y="63.08" width="3.23" height="3.23" transform="translate(-6.78 10.68) rotate(-6.54)"/>
    <rect class="cls-48" x="88.03" y="59.88" width="3.23" height="3.22" transform="translate(-6.42 10.61) rotate(-6.54)"/>
    <rect class="cls-6" x="87.66" y="56.67" width="3.23" height="3.23" transform="translate(-6.06 10.55) rotate(-6.54)"/>
    <rect class="cls-6" x="87.29" y="53.47" width="3.23" height="3.22" transform="translate(-5.7 10.49) rotate(-6.54)"/>
    <rect class="cls-6" x="86.92" y="50.27" width="3.22" height="3.22" transform="translate(-5.33 10.42) rotate(-6.54)"/>
    <rect class="cls-6" x="86.56" y="47.06" width="3.22" height="3.23" transform="translate(-4.97 10.36) rotate(-6.54)"/>
    <rect class="cls-6" x="86.19" y="43.86" width="3.23" height="3.22" transform="translate(-4.61 10.3) rotate(-6.54)"/>
    <rect class="cls-48" x="47.6" y="43.92" width="11.87" height="3.23" transform="translate(-.21 90.82) rotate(-80.51)"/>
    <rect class="cls-48" x="50.66" y="51.37" width="3.25" height="3.23" transform="translate(-8.6 95.81) rotate(-80.51)"/>
    <rect class="cls-48" x="50.13" y="54.58" width="3.25" height="3.22" transform="translate(-12.21 97.96) rotate(-80.51)"/>
    <rect class="cls-48" x="49.59" y="57.78" width="3.25" height="3.22" transform="translate(-15.81 100.1) rotate(-80.51)"/>
    <rect class="cls-48" x="49.05" y="60.98" width="3.25" height="3.22" transform="translate(-19.42 102.25) rotate(-80.51)"/>
    <rect class="cls-48" x="48.52" y="64.18" width="3.25" height="3.22" transform="translate(-23.02 104.4) rotate(-80.51)"/>
    <rect class="cls-66" x="52.79" y="65.56" width="3.25" height="3.23" transform="translate(-10.42 10) rotate(-9.58)"/>
    <rect class="cls-3" x="49.59" y="66.1" width="3.25" height="3.23" transform="translate(-10.56 9.47) rotate(-9.58)"/>
    <rect class="cls-3" x="46.39" y="66.64" width="3.25" height="3.23" transform="translate(-10.69 8.95) rotate(-9.58)"/>
    <rect class="cls-29" x="43.19" y="67.18" width="3.25" height="3.23" transform="translate(-10.83 8.42) rotate(-9.58)"/>
    <rect class="cls-66" x="39.99" y="67.72" width="3.25" height="3.23" transform="translate(-10.96 7.9) rotate(-9.58)"/>
    <rect class="cls-49" x="28.93" y="56.8" width="3.23" height="4.45" transform="translate(-35.55 52.08) rotate(-56.65)"/>
    <rect class="cls-22" x="25.21" y="54.35" width="3.23" height="4.45" transform="translate(-35.18 47.87) rotate(-56.65)"/>
    <rect class="cls-18" x="21.49" y="51.91" width="3.22" height="4.45" transform="translate(-34.81 43.67) rotate(-56.65)"/>
    <rect class="cls-43" x="17.77" y="49.46" width="3.22" height="4.45" transform="translate(-34.44 39.46) rotate(-56.65)"/>
    <rect class="cls-66" x="14.06" y="47.01" width="3.23" height="4.45" transform="translate(-34.07 35.25) rotate(-56.65)"/>
    <rect class="cls-44" x="10.34" y="44.56" width="3.23" height="4.45" transform="translate(-33.7 31.05) rotate(-56.65)"/>
    <rect class="cls-65" x="6.62" y="42.12" width="3.23" height="4.45" transform="translate(-33.33 26.84) rotate(-56.65)"/>
    <rect class="cls-3" x="2.91" y="39.67" width="3.23" height="4.45" transform="translate(-32.96 22.63) rotate(-56.65)"/>
    <rect class="cls-66" x="94.91" y="91.55" width="3.23" height="3.22" transform="translate(-9.99 11.6) rotate(-6.54)"/>
    <rect class="cls-26" x="94.54" y="88.35" width="3.23" height="3.22" transform="translate(-9.62 11.54) rotate(-6.54)"/>
    <rect class="cls-6" x="94.17" y="85.14" width="3.23" height="3.23" transform="translate(-9.26 11.48) rotate(-6.54)"/>
    <rect class="cls-48" x="93.8" y="81.94" width="3.22" height="3.22" transform="translate(-8.9 11.41) rotate(-6.54)"/>
    <rect class="cls-48" x="93.44" y="78.73" width="3.23" height="3.23" transform="translate(-8.54 11.35) rotate(-6.54)"/>
    <rect class="cls-48" x="93.07" y="75.53" width="3.23" height="3.22" transform="translate(-8.17 11.29) rotate(-6.54)"/>
    <rect class="cls-48" x="92.7" y="72.33" width="3.23" height="3.22" transform="translate(-7.81 11.23) rotate(-6.54)"/>
    <rect class="cls-48" x="92.33" y="69.12" width="3.23" height="3.23" transform="translate(-7.45 11.16) rotate(-6.54)"/>
    <rect class="cls-48" x="91.97" y="65.92" width="3.23" height="3.22" transform="translate(-7.08 11.1) rotate(-6.54)"/>
    <rect class="cls-48" x="91.6" y="62.71" width="3.23" height="3.23" transform="translate(-6.72 11.04) rotate(-6.54)"/>
    <rect class="cls-6" x="91.23" y="59.51" width="3.23" height="3.22" transform="translate(-6.36 10.98) rotate(-6.54)"/>
    <rect class="cls-6" x="90.86" y="56.31" width="3.23" height="3.23" transform="translate(-6 10.91) rotate(-6.54)"/>
    <rect class="cls-6" x="90.5" y="53.1" width="3.23" height="3.22" transform="translate(-5.63 10.85) rotate(-6.54)"/>
    <rect class="cls-6" x="90.13" y="49.9" width="3.23" height="3.22" transform="translate(-5.27 10.79) rotate(-6.54)"/>
    <rect class="cls-48" x="89.76" y="46.69" width="3.23" height="3.23" transform="translate(-4.91 10.72) rotate(-6.54)"/>
    <rect class="cls-6" x="89.39" y="43.49" width="3.23" height="3.22" transform="translate(-4.55 10.66) rotate(-6.54)"/>
    <rect class="cls-48" x="44.42" y="43.39" width="11.87" height="3.22" transform="translate(-2.34 87.24) rotate(-80.51)"/>
    <rect class="cls-48" x="47.48" y="50.84" width="3.25" height="3.23" transform="translate(-10.73 92.23) rotate(-80.51)"/>
    <rect class="cls-48" x="46.94" y="54.04" width="3.25" height="3.23" transform="translate(-14.34 94.38) rotate(-80.51)"/>
    <rect class="cls-48" x="46.41" y="57.25" width="3.25" height="3.23" transform="translate(-17.94 96.52) rotate(-80.51)"/>
    <rect class="cls-48" x="45.87" y="60.45" width="3.25" height="3.23" transform="translate(-21.55 98.67) rotate(-80.51)"/>
    <rect class="cls-35" x="45.34" y="63.65" width="3.25" height="3.22" transform="translate(-25.15 100.81) rotate(-80.51)"/>
    <rect class="cls-66" x="44.8" y="66.85" width="3.25" height="3.23" transform="translate(-28.76 102.96) rotate(-80.51)"/>
    <rect class="cls-48" x="49.06" y="62.92" width="3.25" height="3.22" transform="translate(-10.04 9.34) rotate(-9.58)"/>
    <rect class="cls-6" x="45.85" y="63.46" width="3.25" height="3.22" transform="translate(-10.17 8.81) rotate(-9.58)"/>
    <rect class="cls-9" x="42.65" y="64" width="3.25" height="3.22" transform="translate(-10.31 8.29) rotate(-9.58)"/>
    <rect class="cls-66" x="39.45" y="64.54" width="3.25" height="3.22" transform="translate(-10.44 7.76) rotate(-9.58)"/>
    <rect class="cls-66" x="30.7" y="54.11" width="3.22" height="4.45" transform="translate(-32.51 52.35) rotate(-56.65)"/>
    <rect class="cls-66" x="26.98" y="51.66" width="3.23" height="4.45" transform="translate(-32.13 48.14) rotate(-56.65)"/>
    <rect class="cls-66" x="23.27" y="49.21" width="3.23" height="4.45" transform="translate(-31.76 43.94) rotate(-56.65)"/>
    <rect class="cls-66" x="19.55" y="46.76" width="3.22" height="4.45" transform="translate(-31.39 39.73) rotate(-56.65)"/>
    <rect class="cls-66" x="15.83" y="44.32" width="3.22" height="4.45" transform="translate(-31.02 35.52) rotate(-56.65)"/>
    <rect class="cls-66" x="12.11" y="41.87" width="3.22" height="4.45" transform="translate(-30.65 31.32) rotate(-56.65)"/>
    <rect class="cls-66" x="8.4" y="39.42" width="3.22" height="4.45" transform="translate(-30.28 27.11) rotate(-56.65)"/>
    <rect class="cls-66" x="98.48" y="94.39" width="3.22" height="3.23" transform="translate(-10.29 12.03) rotate(-6.54)"/>
    <rect class="cls-6" x="98.11" y="91.18" width="3.22" height="3.22" transform="translate(-9.92 11.97) rotate(-6.54)"/>
    <rect class="cls-6" x="97.74" y="87.98" width="3.22" height="3.22" transform="translate(-9.56 11.9) rotate(-6.54)"/>
    <rect class="cls-6" x="97.37" y="84.78" width="3.22" height="3.23" transform="translate(-9.2 11.84) rotate(-6.54)"/>
    <rect class="cls-6" x="97.01" y="81.57" width="3.22" height="3.22" transform="translate(-8.84 11.78) rotate(-6.54)"/>
    <rect class="cls-48" x="96.64" y="78.37" width="3.22" height="3.23" transform="translate(-8.47 11.71) rotate(-6.54)"/>
    <rect class="cls-48" x="96.27" y="75.16" width="3.22" height="3.22" transform="translate(-8.11 11.65) rotate(-6.54)"/>
    <rect class="cls-48" x="95.9" y="71.96" width="3.22" height="3.22" transform="translate(-7.75 11.59) rotate(-6.54)"/>
    <rect class="cls-48" x="95.54" y="68.76" width="3.22" height="3.23" transform="translate(-7.38 11.53) rotate(-6.54)"/>
    <rect class="cls-48" x="95.17" y="65.55" width="3.22" height="3.22" transform="translate(-7.02 11.46) rotate(-6.54)"/>
    <rect class="cls-48" x="94.8" y="62.35" width="3.22" height="3.23" transform="translate(-6.66 11.4) rotate(-6.54)"/>
    <rect class="cls-6" x="94.44" y="59.14" width="3.22" height="3.22" transform="translate(-6.3 11.34) rotate(-6.54)"/>
    <rect class="cls-6" x="94.07" y="55.94" width="3.22" height="3.23" transform="translate(-5.93 11.28) rotate(-6.54)"/>
    <rect class="cls-48" x="93.7" y="52.74" width="3.22" height="3.22" transform="translate(-5.57 11.21) rotate(-6.54)"/>
    <rect class="cls-48" x="93.33" y="49.53" width="3.22" height="3.22" transform="translate(-5.21 11.15) rotate(-6.54)"/>
    <rect class="cls-6" x="92.97" y="46.33" width="3.22" height="3.23" transform="translate(-4.85 11.09) rotate(-6.54)"/>
    <rect class="cls-6" x="92.6" y="43.12" width="3.22" height="3.22" transform="translate(-4.48 11.02) rotate(-6.54)"/>
    <rect class="cls-48" x="41.24" y="42.86" width="11.87" height="3.22" transform="translate(-4.47 83.66) rotate(-80.51)"/>
    <rect class="cls-48" x="44.3" y="50.31" width="3.25" height="3.22" transform="translate(-12.86 88.65) rotate(-80.51)"/>
    <rect class="cls-35" x="43.76" y="53.51" width="3.25" height="3.22" transform="translate(-16.47 90.8) rotate(-80.51)"/>
    <rect class="cls-48" x="43.23" y="56.71" width="3.25" height="3.22" transform="translate(-20.07 92.94) rotate(-80.51)"/>
    <rect class="cls-48" x="42.69" y="59.91" width="3.25" height="3.22" transform="translate(-23.68 95.09) rotate(-80.51)"/>
    <rect class="cls-48" x="42.16" y="63.12" width="3.25" height="3.22" transform="translate(-27.28 97.23) rotate(-80.51)"/>
    <rect class="cls-66" x="41.62" y="66.32" width="3.25" height="3.22" transform="translate(-30.89 99.38) rotate(-80.51)"/>
    <rect class="cls-6" x="48.52" y="59.74" width="3.25" height="3.22" transform="translate(-9.51 9.2) rotate(-9.58)"/>
    <rect class="cls-2" x="45.32" y="60.28" width="3.25" height="3.22" transform="translate(-9.65 8.68) rotate(-9.58)"/>
    <rect class="cls-52" x="42.12" y="60.82" width="3.25" height="3.22" transform="translate(-9.78 8.15) rotate(-9.58)"/>
    <rect class="cls-66" x="101.68" y="94.02" width="3.23" height="3.23" transform="translate(-10.22 12.39) rotate(-6.54)"/>
    <rect class="cls-48" x="101.31" y="90.82" width="3.23" height="3.22" transform="translate(-9.86 12.33) rotate(-6.54)"/>
    <rect class="cls-48" x="100.95" y="87.61" width="3.23" height="3.22" transform="translate(-9.5 12.27) rotate(-6.54)"/>
    <rect class="cls-6" x="100.58" y="84.41" width="3.23" height="3.23" transform="translate(-9.13 12.2) rotate(-6.54)"/>
    <rect class="cls-6" x="100.21" y="81.2" width="3.23" height="3.22" transform="translate(-8.77 12.14) rotate(-6.54)"/>
    <rect class="cls-6" x="99.84" y="78" width="3.23" height="3.23" transform="translate(-8.41 12.08) rotate(-6.54)"/>
    <rect class="cls-48" x="99.48" y="74.8" width="3.23" height="3.22" transform="translate(-8.05 12.01) rotate(-6.54)"/>
    <rect class="cls-48" x="99.11" y="71.59" width="3.23" height="3.22" transform="translate(-7.68 11.95) rotate(-6.54)"/>
    <rect class="cls-48" x="98.74" y="68.39" width="3.23" height="3.23" transform="translate(-7.32 11.89) rotate(-6.54)"/>
    <rect class="cls-48" x="98.37" y="65.18" width="3.23" height="3.22" transform="translate(-6.96 11.83) rotate(-6.54)"/>
    <rect class="cls-48" x="98.01" y="61.98" width="3.23" height="3.23" transform="translate(-6.6 11.76) rotate(-6.54)"/>
    <rect class="cls-6" x="97.64" y="58.78" width="3.23" height="3.22" transform="translate(-6.23 11.7) rotate(-6.54)"/>
    <rect class="cls-6" x="97.27" y="55.57" width="3.23" height="3.23" transform="translate(-5.87 11.64) rotate(-6.54)"/>
    <rect class="cls-48" x="96.9" y="52.37" width="3.23" height="3.22" transform="translate(-5.51 11.58) rotate(-6.54)"/>
    <rect class="cls-48" x="96.54" y="49.16" width="3.23" height="3.22" transform="translate(-5.15 11.51) rotate(-6.54)"/>
    <rect class="cls-6" x="96.17" y="45.96" width="3.23" height="3.23" transform="translate(-4.78 11.45) rotate(-6.54)"/>
    <rect class="cls-6" x="95.8" y="42.76" width="3.23" height="3.22" transform="translate(-4.42 11.39) rotate(-6.54)"/>
    <rect class="cls-48" x="38.05" y="42.32" width="11.87" height="3.23" transform="translate(-6.6 80.07) rotate(-80.51)"/>
    <rect class="cls-48" x="41.12" y="49.78" width="3.25" height="3.23" transform="translate(-15 85.07) rotate(-80.51)"/>
    <rect class="cls-35" x="40.58" y="52.98" width="3.25" height="3.23" transform="translate(-18.6 87.21) rotate(-80.51)"/>
    <rect class="cls-48" x="40.05" y="56.18" width="3.25" height="3.23" transform="translate(-22.21 89.36) rotate(-80.51)"/>
    <rect class="cls-48" x="39.51" y="59.38" width="3.25" height="3.23" transform="translate(-25.81 91.51) rotate(-80.51)"/>
    <rect class="cls-48" x="38.98" y="62.58" width="3.25" height="3.23" transform="translate(-29.42 93.65) rotate(-80.51)"/>
    <rect class="cls-66" x="38.44" y="65.79" width="3.25" height="3.23" transform="translate(-33.02 95.8) rotate(-80.51)"/>
    <rect class="cls-66" x="47.98" y="56.56" width="3.25" height="3.23" transform="translate(-8.99 9.07) rotate(-9.58)"/>
    <rect class="cls-33" x="44.78" y="57.1" width="3.25" height="3.23" transform="translate(-9.13 8.54) rotate(-9.58)"/>
    <rect class="cls-66" x="104.88" y="93.65" width="3.22" height="3.23" transform="translate(-10.16 12.75) rotate(-6.54)"/>
    <rect class="cls-21" x="104.33" y="87.56" width="3.22" height="3.22" transform="translate(-9.47 12.65) rotate(-6.54)"/>
    <rect class="cls-48" x="103.78" y="84.04" width="3.22" height="3.23" transform="translate(-9.07 12.57) rotate(-6.54)"/>
    <rect class="cls-6" x="103.42" y="80.84" width="3.22" height="3.22" transform="translate(-8.71 12.5) rotate(-6.54)"/>
    <rect class="cls-6" x="103.05" y="77.63" width="3.22" height="3.23" transform="translate(-8.35 12.44) rotate(-6.54)"/>
    <rect class="cls-35" x="102.68" y="74.43" width="3.22" height="3.22" transform="translate(-7.98 12.38) rotate(-6.54)"/>
    <rect class="cls-10" x="102.31" y="71.22" width="3.22" height="3.22" transform="translate(-7.62 12.31) rotate(-6.54)"/>
    <rect class="cls-35" x="101.95" y="68.02" width="3.22" height="3.23" transform="translate(-7.26 12.25) rotate(-6.54)"/>
    <rect class="cls-48" x="101.58" y="64.82" width="3.22" height="3.22" transform="translate(-6.9 12.19) rotate(-6.54)"/>
    <rect class="cls-48" x="101.21" y="61.61" width="3.22" height="3.23" transform="translate(-6.53 12.13) rotate(-6.54)"/>
    <rect class="cls-6" x="100.84" y="58.41" width="3.22" height="3.22" transform="translate(-6.17 12.06) rotate(-6.54)"/>
    <rect class="cls-48" x="100.48" y="55.2" width="3.22" height="3.23" transform="translate(-5.81 12) rotate(-6.54)"/>
    <rect class="cls-48" x="100.11" y="52" width="3.22" height="3.22" transform="translate(-5.45 11.94) rotate(-6.54)"/>
    <rect class="cls-48" x="99.74" y="48.8" width="3.22" height="3.22" transform="translate(-5.08 11.88) rotate(-6.54)"/>
    <rect class="cls-6" x="99.37" y="45.59" width="3.22" height="3.23" transform="translate(-4.72 11.81) rotate(-6.54)"/>
    <rect class="cls-6" x="99.01" y="42.39" width="3.22" height="3.22" transform="translate(-4.36 11.75) rotate(-6.54)"/>
    <rect class="cls-48" x="34.87" y="41.79" width="11.87" height="3.22" transform="translate(-8.73 76.49) rotate(-80.51)"/>
    <rect class="cls-48" x="37.94" y="49.25" width="3.25" height="3.22" transform="translate(-17.13 81.49) rotate(-80.51)"/>
    <rect class="cls-48" x="37.4" y="52.45" width="3.25" height="3.22" transform="translate(-20.73 83.63) rotate(-80.51)"/>
    <rect class="cls-48" x="36.87" y="55.65" width="3.25" height="3.22" transform="translate(-24.34 85.78) rotate(-80.51)"/>
    <rect class="cls-48" x="36.33" y="58.85" width="3.25" height="3.22" transform="translate(-27.94 87.92) rotate(-80.51)"/>
    <rect class="cls-48" x="35.8" y="62.05" width="3.25" height="3.22" transform="translate(-31.55 90.07) rotate(-80.51)"/>
    <rect class="cls-66" x="35.26" y="65.25" width="3.25" height="3.22" transform="translate(-35.15 92.21) rotate(-80.51)"/>
    <rect class="cls-66" x="108.09" y="93.29" width="3.22" height="3.23" transform="translate(-10.1 13.12) rotate(-6.54)"/>
    <rect class="cls-66" x="107.17" y="86.96" width="3.22" height="3.22" transform="translate(-9.38 12.97) rotate(-6.54)"/>
    <rect class="cls-6" x="106.99" y="83.67" width="3.23" height="3.23" transform="translate(-9.01 12.93) rotate(-6.54)"/>
    <rect class="cls-48" x="106.62" y="80.47" width="3.23" height="3.22" transform="translate(-8.65 12.87) rotate(-6.54)"/>
    <rect class="cls-48" x="106.25" y="77.27" width="3.23" height="3.23" transform="translate(-8.28 12.8) rotate(-6.54)"/>
    <rect class="cls-35" x="105.88" y="74.06" width="3.23" height="3.22" transform="translate(-7.92 12.74) rotate(-6.54)"/>
    <rect class="cls-35" x="105.52" y="70.86" width="3.22" height="3.22" transform="translate(-7.56 12.68) rotate(-6.54)"/>
    <rect class="cls-48" x="105.15" y="67.65" width="3.22" height="3.23" transform="translate(-7.2 12.61) rotate(-6.54)"/>
    <rect class="cls-48" x="104.78" y="64.45" width="3.22" height="3.22" transform="translate(-6.83 12.55) rotate(-6.54)"/>
    <rect class="cls-48" x="104.41" y="61.25" width="3.22" height="3.23" transform="translate(-6.47 12.49) rotate(-6.54)"/>
    <rect class="cls-48" x="104.05" y="58.04" width="3.23" height="3.22" transform="translate(-6.11 12.43) rotate(-6.54)"/>
    <rect class="cls-48" x="103.68" y="54.84" width="3.23" height="3.23" transform="translate(-5.75 12.36) rotate(-6.54)"/>
    <rect class="cls-6" x="103.31" y="51.63" width="3.23" height="3.22" transform="translate(-5.38 12.3) rotate(-6.54)"/>
    <rect class="cls-6" x="102.94" y="48.43" width="3.23" height="3.22" transform="translate(-5.02 12.24) rotate(-6.54)"/>
    <rect class="cls-6" x="102.58" y="45.23" width="3.23" height="3.23" transform="translate(-4.66 12.18) rotate(-6.54)"/>
    <rect class="cls-6" x="102.21" y="42.02" width="3.23" height="3.22" transform="translate(-4.3 12.11) rotate(-6.54)"/>
    <rect class="cls-48" x="31.69" y="41.26" width="11.87" height="3.22" transform="translate(-10.87 72.91) rotate(-80.51)"/>
    <rect class="cls-48" x="34.76" y="48.71" width="3.25" height="3.22" transform="translate(-19.26 77.91) rotate(-80.51)"/>
    <rect class="cls-35" x="34.22" y="51.92" width="3.25" height="3.23" transform="translate(-22.86 80.05) rotate(-80.51)"/>
    <rect class="cls-48" x="33.69" y="55.12" width="3.25" height="3.23" transform="translate(-26.47 82.2) rotate(-80.51)"/>
    <rect class="cls-48" x="33.15" y="58.32" width="3.25" height="3.23" transform="translate(-30.07 84.34) rotate(-80.51)"/>
    <rect class="cls-6" x="32.62" y="61.52" width="3.25" height="3.23" transform="translate(-33.68 86.49) rotate(-80.51)"/>
    <rect class="cls-66" x="32.08" y="64.72" width="3.25" height="3.23" transform="translate(-37.28 88.63) rotate(-80.51)"/>
    <rect class="cls-66" x="111.29" y="92.92" width="3.22" height="3.23" transform="translate(-10.03 13.48) rotate(-6.54)"/>
    <rect class="cls-66" x="110.37" y="86.59" width="3.23" height="3.22" transform="translate(-9.32 13.33) rotate(-6.54)"/>
    <rect class="cls-48" x="110.19" y="83.31" width="3.23" height="3.23" transform="translate(-8.95 13.29) rotate(-6.54)"/>
    <rect class="cls-48" x="109.82" y="80.1" width="3.23" height="3.22" transform="translate(-8.58 13.23) rotate(-6.54)"/>
    <rect class="cls-6" x="109.46" y="76.9" width="3.23" height="3.23" transform="translate(-8.22 13.17) rotate(-6.54)"/>
    <rect class="cls-35" x="109.09" y="73.69" width="3.23" height="3.22" transform="translate(-7.86 13.1) rotate(-6.54)"/>
    <rect class="cls-35" x="108.72" y="70.49" width="3.23" height="3.22" transform="translate(-7.5 13.04) rotate(-6.54)"/>
    <rect class="cls-48" x="108.35" y="67.29" width="3.23" height="3.23" transform="translate(-7.13 12.98) rotate(-6.54)"/>
    <rect class="cls-48" x="107.99" y="64.08" width="3.23" height="3.22" transform="translate(-6.77 12.91) rotate(-6.54)"/>
    <rect class="cls-6" x="107.62" y="60.88" width="3.22" height="3.23" transform="translate(-6.41 12.85) rotate(-6.54)"/>
    <rect class="cls-6" x="107.25" y="57.67" width="3.22" height="3.22" transform="translate(-6.05 12.79) rotate(-6.54)"/>
    <rect class="cls-6" x="106.88" y="54.47" width="3.22" height="3.23" transform="translate(-5.68 12.73) rotate(-6.54)"/>
    <rect class="cls-6" x="106.52" y="51.27" width="3.22" height="3.22" transform="translate(-5.32 12.66) rotate(-6.54)"/>
    <rect class="cls-6" x="106.15" y="48.06" width="3.23" height="3.22" transform="translate(-4.96 12.6) rotate(-6.54)"/>
    <rect class="cls-6" x="105.78" y="44.86" width="3.23" height="3.23" transform="translate(-4.6 12.54) rotate(-6.54)"/>
    <rect class="cls-6" x="105.41" y="41.65" width="3.23" height="3.22" transform="translate(-4.23 12.48) rotate(-6.54)"/>
    <rect class="cls-48" x="28.51" y="40.73" width="11.87" height="3.22" transform="translate(-13 69.33) rotate(-80.51)"/>
    <rect class="cls-48" x="31.58" y="48.18" width="3.25" height="3.23" transform="translate(-21.39 74.32) rotate(-80.51)"/>
    <rect class="cls-48" x="31.04" y="51.38" width="3.25" height="3.23" transform="translate(-24.99 76.47) rotate(-80.51)"/>
    <rect class="cls-48" x="30.51" y="54.59" width="3.25" height="3.22" transform="translate(-28.6 78.62) rotate(-80.51)"/>
    <rect class="cls-48" x="29.97" y="57.79" width="3.25" height="3.22" transform="translate(-32.2 80.76) rotate(-80.51)"/>
    <rect class="cls-35" x="29.43" y="60.99" width="3.25" height="3.22" transform="translate(-35.81 82.91) rotate(-80.51)"/>
    <rect class="cls-66" x="28.9" y="64.19" width="3.25" height="3.23" transform="translate(-39.41 85.05) rotate(-80.51)"/>
    <rect class="cls-66" x="114.5" y="92.55" width="3.22" height="3.23" transform="translate(-9.97 13.84) rotate(-6.54)"/>
    <rect class="cls-48" x="114.13" y="89.35" width="3.22" height="3.22" transform="translate(-9.61 13.78) rotate(-6.54)"/>
    <rect class="cls-6" x="113.76" y="86.14" width="3.22" height="3.22" transform="translate(-9.25 13.72) rotate(-6.54)"/>
    <rect class="cls-6" x="113.39" y="82.94" width="3.22" height="3.23" transform="translate(-8.88 13.65) rotate(-6.54)"/>
    <rect class="cls-6" x="113.03" y="79.73" width="3.22" height="3.22" transform="translate(-8.52 13.59) rotate(-6.54)"/>
    <rect class="cls-48" x="112.66" y="76.53" width="3.22" height="3.23" transform="translate(-8.16 13.53) rotate(-6.54)"/>
    <rect class="cls-35" x="112.29" y="73.33" width="3.22" height="3.22" transform="translate(-7.8 13.47) rotate(-6.54)"/>
    <rect class="cls-48" x="111.92" y="70.12" width="3.22" height="3.22" transform="translate(-7.43 13.4) rotate(-6.54)"/>
    <rect class="cls-48" x="111.56" y="66.92" width="3.22" height="3.23" transform="translate(-7.07 13.34) rotate(-6.54)"/>
    <rect class="cls-48" x="111.19" y="63.71" width="3.22" height="3.22" transform="translate(-6.71 13.28) rotate(-6.54)"/>
    <rect class="cls-6" x="110.82" y="60.51" width="3.22" height="3.23" transform="translate(-6.35 13.21) rotate(-6.54)"/>
    <rect class="cls-6" x="110.46" y="57.31" width="3.22" height="3.22" transform="translate(-5.98 13.15) rotate(-6.54)"/>
    <rect class="cls-6" x="110.09" y="54.1" width="3.22" height="3.23" transform="translate(-5.62 13.09) rotate(-6.54)"/>
    <rect class="cls-6" x="109.72" y="50.9" width="3.22" height="3.22" transform="translate(-5.26 13.03) rotate(-6.54)"/>
    <rect class="cls-6" x="109.35" y="47.69" width="3.22" height="3.22" transform="translate(-4.9 12.96) rotate(-6.54)"/>
    <rect class="cls-6" x="108.99" y="44.49" width="3.22" height="3.23" transform="translate(-4.53 12.9) rotate(-6.54)"/>
    <rect class="cls-48" x="108.62" y="41.29" width="3.22" height="3.22" transform="translate(-4.17 12.84) rotate(-6.54)"/>
    <rect class="cls-48" x="25.33" y="40.2" width="11.87" height="3.22" transform="translate(-15.13 65.75) rotate(-80.51)"/>
    <rect class="cls-48" x="28.4" y="47.65" width="3.25" height="3.22" transform="translate(-23.52 70.74) rotate(-80.51)"/>
    <rect class="cls-48" x="27.86" y="50.85" width="3.25" height="3.22" transform="translate(-27.13 72.89) rotate(-80.51)"/>
    <rect class="cls-48" x="27.32" y="54.05" width="3.25" height="3.22" transform="translate(-30.73 75.03) rotate(-80.51)"/>
    <rect class="cls-67" x="26.79" y="57.25" width="3.25" height="3.22" transform="translate(-34.34 77.18) rotate(-80.51)"/>
    <rect class="cls-66" x="26.25" y="60.46" width="3.25" height="3.22" transform="translate(-37.94 79.32) rotate(-80.51)"/>
    <rect class="cls-66" x="117.7" y="92.18" width="3.23" height="3.23" transform="translate(-9.91 14.2) rotate(-6.54)"/>
    <rect class="cls-6" x="117.33" y="88.98" width="3.23" height="3.22" transform="translate(-9.55 14.14) rotate(-6.54)"/>
    <rect class="cls-6" x="116.97" y="85.77" width="3.23" height="3.22" transform="translate(-9.18 14.08) rotate(-6.54)"/>
    <rect class="cls-6" x="116.6" y="82.57" width="3.23" height="3.23" transform="translate(-8.82 14.02) rotate(-6.54)"/>
    <rect class="cls-6" x="116.23" y="79.37" width="3.23" height="3.22" transform="translate(-8.46 13.95) rotate(-6.54)"/>
    <rect class="cls-48" x="115.86" y="76.16" width="3.23" height="3.23" transform="translate(-8.1 13.89) rotate(-6.54)"/>
    <rect class="cls-48" x="115.5" y="72.96" width="3.23" height="3.22" transform="translate(-7.73 13.83) rotate(-6.54)"/>
    <rect class="cls-48" x="115.13" y="69.75" width="3.23" height="3.22" transform="translate(-7.37 13.77) rotate(-6.54)"/>
    <rect class="cls-48" x="114.76" y="66.55" width="3.23" height="3.23" transform="translate(-7.01 13.7) rotate(-6.54)"/>
    <rect class="cls-6" x="114.39" y="63.35" width="3.23" height="3.22" transform="translate(-6.65 13.64) rotate(-6.54)"/>
    <rect class="cls-48" x="114.03" y="60.14" width="3.23" height="3.23" transform="translate(-6.28 13.58) rotate(-6.54)"/>
    <rect class="cls-6" x="113.66" y="56.94" width="3.23" height="3.22" transform="translate(-5.92 13.51) rotate(-6.54)"/>
    <rect class="cls-6" x="113.29" y="53.73" width="3.23" height="3.23" transform="translate(-5.56 13.45) rotate(-6.54)"/>
    <rect class="cls-6" x="112.92" y="50.53" width="3.23" height="3.22" transform="translate(-5.19 13.39) rotate(-6.54)"/>
    <rect class="cls-66" x="112.56" y="47.33" width="3.23" height="3.22" transform="translate(-4.83 13.33) rotate(-6.54)"/>
    <rect class="cls-66" x="112.19" y="44.12" width="3.23" height="3.23" transform="translate(-4.47 13.26) rotate(-6.54)"/>
    <rect class="cls-66" x="111.82" y="40.92" width="3.23" height="3.22" transform="translate(-4.11 13.2) rotate(-6.54)"/>
    <rect class="cls-66" x="22.15" y="39.66" width="11.87" height="3.23" transform="translate(-17.26 62.17) rotate(-80.51)"/>
    <rect class="cls-66" x="25.21" y="47.12" width="3.25" height="3.23" transform="translate(-25.65 67.16) rotate(-80.51)"/>
    <rect class="cls-66" x="24.68" y="50.32" width="3.25" height="3.23" transform="translate(-29.26 69.31) rotate(-80.51)"/>
    <rect class="cls-66" x="24.14" y="53.52" width="3.25" height="3.23" transform="translate(-32.86 71.45) rotate(-80.51)"/>
    <rect class="cls-68" x="23.61" y="56.72" width="3.25" height="3.23" transform="translate(-36.47 73.6) rotate(-80.51)"/>
    <rect class="cls-66" x="120.9" y="91.82" width="3.22" height="3.23" transform="translate(-9.85 14.57) rotate(-6.54)"/>
    <rect class="cls-6" x="120.54" y="88.61" width="3.22" height="3.22" transform="translate(-9.48 14.5) rotate(-6.54)"/>
    <rect class="cls-6" x="120.17" y="85.41" width="3.22" height="3.22" transform="translate(-9.12 14.44) rotate(-6.54)"/>
    <rect class="cls-6" x="119.8" y="82.2" width="3.22" height="3.23" transform="translate(-8.76 14.38) rotate(-6.54)"/>
    <rect class="cls-6" x="119.44" y="79" width="3.22" height="3.22" transform="translate(-8.4 14.32) rotate(-6.54)"/>
    <rect class="cls-48" x="119.07" y="75.8" width="3.22" height="3.23" transform="translate(-8.03 14.25) rotate(-6.54)"/>
    <rect class="cls-48" x="118.7" y="72.59" width="3.22" height="3.22" transform="translate(-7.67 14.19) rotate(-6.54)"/>
    <rect class="cls-48" x="118.33" y="69.39" width="3.22" height="3.22" transform="translate(-7.31 14.13) rotate(-6.54)"/>
    <rect class="cls-48" x="117.97" y="66.18" width="3.22" height="3.23" transform="translate(-6.95 14.06) rotate(-6.54)"/>
    <rect class="cls-48" x="117.6" y="62.98" width="3.22" height="3.22" transform="translate(-6.58 14) rotate(-6.54)"/>
    <rect class="cls-48" x="117.23" y="59.78" width="3.22" height="3.23" transform="translate(-6.22 13.94) rotate(-6.54)"/>
    <rect class="cls-6" x="116.86" y="56.57" width="3.22" height="3.22" transform="translate(-5.86 13.88) rotate(-6.54)"/>
    <rect class="cls-6" x="116.5" y="53.37" width="3.22" height="3.23" transform="translate(-5.49 13.81) rotate(-6.54)"/>
    <rect class="cls-48" x="116.13" y="50.16" width="3.22" height="3.22" transform="translate(-5.13 13.75) rotate(-6.54)"/>
    <rect class="cls-66" x="115.76" y="46.96" width="3.22" height="3.22" transform="translate(-4.77 13.69) rotate(-6.54)"/>
    <rect class="cls-66" x="124.09" y="91.14" width="8.62" height="3.23" transform="translate(-9.73 15.23) rotate(-6.54)"/>
    <rect class="cls-48" x="123.74" y="88.24" width="3.23" height="3.22" transform="translate(-9.42 14.87) rotate(-6.54)"/>
    <rect class="cls-6" x="123.37" y="85.04" width="3.22" height="3.22" transform="translate(-9.06 14.8) rotate(-6.54)"/>
    <rect class="cls-6" x="123.01" y="81.84" width="3.22" height="3.23" transform="translate(-8.7 14.74) rotate(-6.54)"/>
    <rect class="cls-48" x="122.64" y="78.63" width="3.22" height="3.22" transform="translate(-8.33 14.68) rotate(-6.54)"/>
    <rect class="cls-48" x="122.27" y="75.43" width="3.22" height="3.23" transform="translate(-7.97 14.62) rotate(-6.54)"/>
    <rect class="cls-48" x="121.9" y="72.22" width="3.23" height="3.22" transform="translate(-7.61 14.55) rotate(-6.54)"/>
    <rect class="cls-48" x="121.54" y="69.02" width="3.23" height="3.22" transform="translate(-7.25 14.49) rotate(-6.54)"/>
    <rect class="cls-48" x="121.17" y="65.82" width="3.23" height="3.23" transform="translate(-6.88 14.43) rotate(-6.54)"/>
    <rect class="cls-48" x="120.8" y="62.61" width="3.23" height="3.22" transform="translate(-6.52 14.36) rotate(-6.54)"/>
    <rect class="cls-48" x="120.43" y="59.41" width="3.23" height="3.23" transform="translate(-6.16 14.3) rotate(-6.54)"/>
    <rect class="cls-35" x="120.07" y="56.2" width="3.23" height="3.22" transform="translate(-5.79 14.24) rotate(-6.54)"/>
    <rect class="cls-48" x="119.7" y="53" width="3.23" height="3.23" transform="translate(-5.43 14.18) rotate(-6.54)"/>
    <rect class="cls-27" x="119.33" y="49.8" width="3.23" height="3.22" transform="translate(-5.07 14.11) rotate(-6.54)"/>
    <rect class="cls-66" x="118.96" y="46.59" width="3.23" height="3.22" transform="translate(-4.71 14.05) rotate(-6.54)"/>
    <rect class="cls-66" x="131.38" y="91.28" width="3.23" height="3.22" transform="translate(-28.7 105.92) rotate(-39.54)"/>
    <rect class="cls-6" x="127.27" y="86.3" width="3.23" height="3.23" transform="translate(-26.48 102.17) rotate(-39.54)"/>
    <rect class="cls-6" x="125.22" y="83.82" width="3.23" height="3.22" transform="translate(-25.36 100.29) rotate(-39.54)"/>
    <rect class="cls-48" x="125.48" y="75.06" width="3.22" height="3.23" transform="translate(-7.91 14.98) rotate(-6.54)"/>
    <rect class="cls-48" x="125.11" y="71.86" width="3.22" height="3.22" transform="translate(-7.55 14.92) rotate(-6.54)"/>
    <rect class="cls-48" x="124.74" y="68.65" width="3.23" height="3.22" transform="translate(-7.18 14.85) rotate(-6.54)"/>
    <rect class="cls-48" x="124.37" y="65.45" width="3.23" height="3.23" transform="translate(-6.82 14.79) rotate(-6.54)"/>
    <rect class="cls-6" x="124.01" y="62.24" width="3.23" height="3.22" transform="translate(-6.46 14.73) rotate(-6.54)"/>
    <rect class="cls-46" x="123.64" y="59.04" width="3.23" height="3.23" transform="translate(-6.09 14.66) rotate(-6.54)"/>
    <rect class="cls-38" x="123.27" y="55.84" width="3.23" height="3.22" transform="translate(-5.73 14.6) rotate(-6.54)"/>
    <rect class="cls-15" x="122.9" y="52.63" width="3.23" height="3.23" transform="translate(-5.37 14.54) rotate(-6.54)"/>
    <rect class="cls-1" x="122.54" y="49.43" width="3.23" height="3.22" transform="translate(-5.01 14.48) rotate(-6.54)"/>
    <rect class="cls-66" x="122.17" y="46.22" width="3.22" height="3.22" transform="translate(-4.64 14.41) rotate(-6.54)"/>
    <rect class="cls-66" x="133.87" y="89.23" width="3.22" height="3.22" transform="translate(-26.83 107.03) rotate(-39.54)"/>
    <rect class="cls-16" x="131.81" y="86.74" width="3.22" height="3.22" transform="translate(-25.72 105.16) rotate(-39.54)"/>
    <rect class="cls-61" x="129.76" y="84.25" width="3.22" height="3.23" transform="translate(-24.6 103.28) rotate(-39.54)"/>
    <rect class="cls-16" x="127.71" y="81.76" width="3.22" height="3.22" transform="translate(-23.49 101.4) rotate(-39.54)"/>
    <rect class="cls-16" x="125.65" y="79.28" width="3.22" height="3.23" transform="translate(-22.37 99.53) rotate(-39.54)"/>
    <rect class="cls-16" x="123.6" y="76.79" width="3.22" height="3.22" transform="translate(-21.26 97.65) rotate(-39.54)"/>
    <rect class="cls-55" x="121.55" y="74.3" width="3.22" height="3.22" transform="translate(-20.15 95.78) rotate(-39.54)"/>
    <rect class="cls-53" x="119.5" y="71.82" width="3.22" height="3.23" transform="translate(-19.03 93.9) rotate(-39.54)"/>
    <rect class="cls-6" x="118.2" y="61.58" width="3.22" height="3.22" transform="translate(15.98 150.17) rotate(-67.76)"/>
    <rect class="cls-46" x="119.42" y="58.59" width="3.23" height="3.22" transform="translate(19.5 149.45) rotate(-67.76)"/>
    <rect class="cls-45" x="120.64" y="55.61" width="3.22" height="3.22" transform="translate(23.02 148.72) rotate(-67.76)"/>
    <rect class="cls-63" x="121.86" y="52.62" width="3.23" height="3.22" transform="translate(26.54 148) rotate(-67.76)"/>
    <rect class="cls-1" x="123.08" y="49.64" width="3.22" height="3.22" transform="translate(30.06 147.27) rotate(-67.76)"/>
    <rect class="cls-66" x="124.3" y="46.65" width="3.22" height="3.22" transform="translate(33.58 146.55) rotate(-67.76)"/>
    <rect class="cls-66" x="136.35" y="87.17" width="3.23" height="3.22" transform="translate(-24.95 108.14) rotate(-39.54)"/>
    <rect class="cls-66" x="134.3" y="84.69" width="3.23" height="3.22" transform="translate(-23.84 106.27) rotate(-39.54)"/>
    <rect class="cls-66" x="132.25" y="82.2" width="3.23" height="3.23" transform="translate(-22.73 104.39) rotate(-39.54)"/>
    <rect class="cls-66" x="130.19" y="79.71" width="3.23" height="3.22" transform="translate(-21.61 102.52) rotate(-39.54)"/>
    <rect class="cls-66" x="128.14" y="77.22" width="3.23" height="3.23" transform="translate(-20.5 100.64) rotate(-39.54)"/>
    <rect class="cls-66" x="126.09" y="74.74" width="3.23" height="3.22" transform="translate(-19.39 98.76) rotate(-39.54)"/>
    <rect class="cls-66" x="124.04" y="72.25" width="3.22" height="3.22" transform="translate(-18.27 96.89) rotate(-39.54)"/>
    <rect class="cls-66" x="121.98" y="69.76" width="3.23" height="3.23" transform="translate(-17.16 95.01) rotate(-39.54)"/>
    <rect class="cls-41" x="121.19" y="62.8" width="3.22" height="3.23" transform="translate(16.7 153.69) rotate(-67.76)"/>
    <rect class="cls-8" x="122.41" y="59.81" width="3.23" height="3.23" transform="translate(20.22 152.97) rotate(-67.76)"/>
    <rect class="cls-29" x="123.63" y="56.83" width="3.22" height="3.23" transform="translate(23.75 152.24) rotate(-67.76)"/>
    <rect class="cls-38" x="124.85" y="53.84" width="3.23" height="3.23" transform="translate(27.27 151.52) rotate(-67.76)"/>
    <rect class="cls-63" x="126.07" y="50.86" width="3.22" height="3.23" transform="translate(30.79 150.79) rotate(-67.76)"/>
    <rect class="cls-66" x="127.29" y="47.87" width="3.22" height="3.23" transform="translate(34.31 150.07) rotate(-67.76)"/>
    <rect class="cls-66" x="138.84" y="85.12" width="3.22" height="3.22" transform="translate(-23.08 109.26) rotate(-39.54)"/>
    <rect class="cls-58" x="136.79" y="82.63" width="3.22" height="3.22" transform="translate(-21.96 107.38) rotate(-39.54)"/>
    <rect class="cls-1" x="134.73" y="80.15" width="3.22" height="3.23" transform="translate(-20.85 105.51) rotate(-39.54)"/>
    <rect class="cls-15" x="132.68" y="77.66" width="3.22" height="3.22" transform="translate(-19.74 103.63) rotate(-39.54)"/>
    <rect class="cls-64" x="130.63" y="75.17" width="3.22" height="3.23" transform="translate(-18.62 101.75) rotate(-39.54)"/>
    <rect class="cls-23" x="128.58" y="72.68" width="3.22" height="3.22" transform="translate(-17.51 99.88) rotate(-39.54)"/>
    <rect class="cls-66" x="126.52" y="70.2" width="3.22" height="3.22" transform="translate(-16.4 98) rotate(-39.54)"/>
    <rect class="cls-66" x="124.17" y="64.02" width="3.22" height="3.22" transform="translate(17.43 157.22) rotate(-67.76)"/>
    <rect class="cls-49" x="125.39" y="61.03" width="3.23" height="3.22" transform="translate(20.95 156.49) rotate(-67.76)"/>
    <rect class="cls-47" x="126.61" y="58.05" width="3.22" height="3.22" transform="translate(24.47 155.77) rotate(-67.76)"/>
    <rect class="cls-66" x="127.83" y="55.06" width="3.23" height="3.22" transform="translate(27.99 155.04) rotate(-67.76)"/>
    <rect class="cls-63" x="129.05" y="52.08" width="3.22" height="3.22" transform="translate(31.51 154.31) rotate(-67.76)"/>
    <rect class="cls-66" x="130.27" y="49.09" width="3.22" height="3.22" transform="translate(35.04 153.59) rotate(-67.76)"/>
    <rect class="cls-66" x="141.33" y="83.07" width="3.23" height="3.22" transform="translate(-21.2 110.37) rotate(-39.54)"/>
    <rect class="cls-1" x="139.27" y="80.58" width="3.22" height="3.22" transform="translate(-20.09 108.5) rotate(-39.54)"/>
    <rect class="cls-29" x="137.22" y="78.09" width="3.22" height="3.23" transform="translate(-18.97 106.62) rotate(-39.54)"/>
    <rect class="cls-6" x="135.17" y="75.61" width="3.22" height="3.22" transform="translate(-17.86 104.74) rotate(-39.54)"/>
    <rect class="cls-66" x="133.12" y="73.12" width="3.22" height="3.23" transform="translate(-16.75 102.87) rotate(-39.54)"/>
    <rect class="cls-54" x="131.06" y="70.63" width="3.23" height="3.22" transform="translate(-15.63 100.99) rotate(-39.54)"/>
    <rect class="cls-29" x="128.38" y="62.25" width="3.23" height="3.23" transform="translate(21.67 160.01) rotate(-67.76)"/>
    <rect class="cls-62" x="129.6" y="59.27" width="3.22" height="3.23" transform="translate(25.2 159.29) rotate(-67.76)"/>
    <rect class="cls-59" x="132.04" y="53.3" width="3.22" height="3.23" transform="translate(32.24 157.84) rotate(-67.76)"/>
    <rect class="cls-66" x="133.26" y="50.31" width="3.22" height="3.23" transform="translate(35.76 157.11) rotate(-67.76)"/>
    <rect class="cls-66" x="143.82" y="81.01" width="3.22" height="3.22" transform="translate(-19.32 111.49) rotate(-39.54)"/>
    <rect class="cls-66" x="137.66" y="73.55" width="3.23" height="3.22" transform="translate(-15.98 105.86) rotate(-39.54)"/>
    <rect class="cls-66" x="133.8" y="57.5" width="3.23" height="3.22" transform="translate(29.44 162.08) rotate(-67.76)"/>
    <rect class="cls-6" x="135.02" y="54.52" width="3.22" height="3.22" transform="translate(32.96 161.36) rotate(-67.76)"/>
    <rect class="cls-66" x="136.25" y="51.53" width="3.22" height="3.22" transform="translate(36.49 160.63) rotate(-67.76)"/>
    <rect class="cls-66" x="146.3" y="78.96" width="3.22" height="3.22" transform="translate(-17.45 112.6) rotate(-39.54)"/>
    <rect class="cls-21" x="144.25" y="76.47" width="3.22" height="3.22" transform="translate(-16.34 110.72) rotate(-39.54)"/>
    <rect class="cls-30" x="142.2" y="73.99" width="3.22" height="3.23" transform="translate(-15.22 108.85) rotate(-39.54)"/>
    <rect class="cls-7" x="136.79" y="58.73" width="3.23" height="3.22" transform="translate(30.17 165.61) rotate(-67.76)"/>
    <rect class="cls-19" x="138.01" y="55.74" width="3.22" height="3.22" transform="translate(33.69 164.88) rotate(-67.76)"/>
    <rect class="cls-66" x="139.23" y="52.75" width="3.22" height="3.22" transform="translate(37.21 164.15) rotate(-67.76)"/>
    <rect class="cls-66" x="148.79" y="76.91" width="3.23" height="3.22" transform="translate(-15.57 113.71) rotate(-39.54)"/>
    <rect class="cls-66" x="146.74" y="74.42" width="3.23" height="3.22" transform="translate(-14.46 111.84) rotate(-39.54)"/>
    <rect class="cls-66" x="144.68" y="71.93" width="3.23" height="3.23" transform="translate(-13.35 109.96) rotate(-39.54)"/>
    <rect class="cls-66" x="140.99" y="56.96" width="3.22" height="3.23" transform="translate(34.42 168.4) rotate(-67.76)"/>
    <rect class="cls-66" x="142.22" y="53.98" width="3.22" height="3.23" transform="translate(37.94 167.68) rotate(-67.76)"/>
    <rect class="cls-66" x="63.06" y="35.98" width="12.36" height="3.22" transform="translate(4.57 82.6) rotate(-63.33)"/>
    <rect class="cls-66" x="57.51" y="47.03" width="12.36" height="3.23" transform="translate(-8.36 83.73) rotate(-63.33)"/>
    <rect class="cls-48" x="60.18" y="34.54" width="12.36" height="3.23" transform="translate(4.27 79.22) rotate(-63.33)"/>
    <rect class="cls-48" x="54.63" y="45.58" width="12.36" height="3.23" transform="translate(-8.66 80.35) rotate(-63.33)"/>
    <rect class="cls-48" x="57.29" y="33.09" width="12.36" height="3.22" transform="translate(3.98 75.85) rotate(-63.33)"/>
    <rect class="cls-6" x="51.75" y="44.13" width="12.36" height="3.22" transform="translate(-8.95 76.98) rotate(-63.33)"/>
    <rect class="cls-6" x="54.41" y="31.64" width="12.36" height="3.23" transform="translate(3.68 72.48) rotate(-63.33)"/>
    <rect class="cls-48" x="48.87" y="42.69" width="12.36" height="3.23" transform="translate(-9.25 73.61) rotate(-63.33)"/>
    <rect class="cls-6" x="51.53" y="30.19" width="12.36" height="3.22" transform="translate(3.39 69.1) rotate(-63.33)"/>
    <rect class="cls-6" x="45.98" y="41.24" width="12.36" height="3.22" transform="translate(-9.54 70.23) rotate(-63.33)"/>
    <rect class="cls-6" x="48.65" y="28.75" width="12.36" height="3.22" transform="translate(3.09 65.73) rotate(-63.33)"/>
    <rect class="cls-6" x="43.1" y="39.79" width="12.36" height="3.22" transform="translate(-9.84 66.86) rotate(-63.33)"/>
    <rect class="cls-6" x="45.77" y="27.3" width="12.36" height="3.23" transform="translate(2.8 62.36) rotate(-63.33)"/>
    <rect class="cls-48" x="40.22" y="38.34" width="12.36" height="3.23" transform="translate(-10.13 63.49) rotate(-63.33)"/>
    <rect class="cls-48" x="42.88" y="25.85" width="12.36" height="3.22" transform="translate(2.5 58.98) rotate(-63.33)"/>
    <rect class="cls-48" x="37.34" y="36.9" width="12.36" height="3.22" transform="translate(-10.43 60.11) rotate(-63.33)"/>
    <rect class="cls-48" x="40" y="24.41" width="12.36" height="3.22" transform="translate(2.21 55.61) rotate(-63.33)"/>
    <rect class="cls-48" x="34.46" y="35.45" width="12.36" height="3.22" transform="translate(-10.72 56.74) rotate(-63.33)"/>
    <rect class="cls-48" x="37.12" y="22.96" width="12.36" height="3.22" transform="translate(1.91 52.24) rotate(-63.33)"/>
    <rect class="cls-6" x="31.57" y="34" width="12.36" height="3.23" transform="translate(-11.02 53.37) rotate(-63.33)"/>
    <rect class="cls-48" x="34.24" y="21.51" width="12.36" height="3.22" transform="translate(1.61 48.86) rotate(-63.33)"/>
    <rect class="cls-48" x="28.69" y="32.55" width="12.36" height="3.22" transform="translate(-11.31 49.99) rotate(-63.33)"/>
    <rect class="cls-66" x="31.36" y="20.06" width="12.36" height="3.23" transform="translate(1.32 45.49) rotate(-63.33)"/>
    <rect class="cls-66" x="25.81" y="31.11" width="12.36" height="3.23" transform="translate(-11.61 46.62) rotate(-63.33)"/>
    <rect class="cls-66" x="63.06" y="35.98" width="12.36" height="3.22" transform="translate(4.57 82.6) rotate(-63.33)"/>
    <rect class="cls-66" x="57.51" y="47.03" width="12.36" height="3.23" transform="translate(-8.36 83.73) rotate(-63.33)"/>
    <rect class="cls-48" x="60.18" y="34.54" width="12.36" height="3.23" transform="translate(4.27 79.22) rotate(-63.33)"/>
    <rect class="cls-48" x="54.63" y="45.58" width="12.36" height="3.23" transform="translate(-8.66 80.35) rotate(-63.33)"/>
    <rect class="cls-48" x="57.29" y="33.09" width="12.36" height="3.22" transform="translate(3.98 75.85) rotate(-63.33)"/>
    <rect class="cls-6" x="51.75" y="44.13" width="12.36" height="3.22" transform="translate(-8.95 76.98) rotate(-63.33)"/>
    <rect class="cls-6" x="54.41" y="31.64" width="12.36" height="3.23" transform="translate(3.68 72.48) rotate(-63.33)"/>
    <rect class="cls-48" x="48.87" y="42.69" width="12.36" height="3.23" transform="translate(-9.25 73.61) rotate(-63.33)"/>
    <rect class="cls-6" x="51.53" y="30.19" width="12.36" height="3.22" transform="translate(3.39 69.1) rotate(-63.33)"/>
    <rect class="cls-6" x="45.98" y="41.24" width="12.36" height="3.22" transform="translate(-9.54 70.23) rotate(-63.33)"/>
    <rect class="cls-6" x="48.65" y="28.75" width="12.36" height="3.22" transform="translate(3.09 65.73) rotate(-63.33)"/>
    <rect class="cls-6" x="43.1" y="39.79" width="12.36" height="3.22" transform="translate(-9.84 66.86) rotate(-63.33)"/>
    <rect class="cls-6" x="45.77" y="27.3" width="12.36" height="3.23" transform="translate(2.8 62.36) rotate(-63.33)"/>
    <rect class="cls-48" x="40.22" y="38.34" width="12.36" height="3.23" transform="translate(-10.13 63.49) rotate(-63.33)"/>
    <rect class="cls-48" x="42.88" y="25.85" width="12.36" height="3.22" transform="translate(2.5 58.98) rotate(-63.33)"/>
    <rect class="cls-48" x="37.34" y="36.9" width="12.36" height="3.22" transform="translate(-10.43 60.11) rotate(-63.33)"/>
    <rect class="cls-48" x="40" y="24.41" width="12.36" height="3.22" transform="translate(2.21 55.61) rotate(-63.33)"/>
    <rect class="cls-48" x="34.46" y="35.45" width="12.36" height="3.22" transform="translate(-10.72 56.74) rotate(-63.33)"/>
    <rect class="cls-48" x="37.12" y="22.96" width="12.36" height="3.22" transform="translate(1.91 52.24) rotate(-63.33)"/>
    <rect class="cls-6" x="31.57" y="34" width="12.36" height="3.23" transform="translate(-11.02 53.37) rotate(-63.33)"/>
    <rect class="cls-48" x="34.24" y="21.51" width="12.36" height="3.22" transform="translate(1.61 48.86) rotate(-63.33)"/>
    <rect class="cls-48" x="28.69" y="32.55" width="12.36" height="3.22" transform="translate(-11.31 49.99) rotate(-63.33)"/>
    <rect class="cls-66" x="31.36" y="20.06" width="12.36" height="3.23" transform="translate(1.32 45.49) rotate(-63.33)"/>
    <rect class="cls-66" x="25.81" y="31.11" width="12.36" height="3.23" transform="translate(-11.61 46.62) rotate(-63.33)"/>
    <rect class="cls-66" x="71.15" y="33.42" width="12.36" height="3.23" transform="translate(-6.04 51.07) rotate(-35.26)"/>
    <rect class="cls-48" x="69.29" y="30.78" width="12.36" height="3.23" transform="translate(-4.86 49.51) rotate(-35.26)"/>
    <rect class="cls-48" x="59.2" y="37.92" width="12.36" height="3.23" transform="translate(-10.83 44.99) rotate(-35.26)"/>
    <rect class="cls-48" x="67.43" y="28.15" width="12.36" height="3.22" transform="translate(-3.68 47.95) rotate(-35.26)"/>
    <rect class="cls-6" x="57.34" y="35.29" width="12.36" height="3.22" transform="translate(-9.65 43.43) rotate(-35.26)"/>
    <rect class="cls-6" x="65.57" y="25.52" width="12.36" height="3.23" transform="translate(-2.5 46.39) rotate(-35.26)"/>
    <rect class="cls-48" x="55.48" y="32.65" width="12.36" height="3.23" transform="translate(-8.47 41.88) rotate(-35.26)"/>
    <rect class="cls-6" x="63.71" y="22.88" width="12.36" height="3.22" transform="translate(-1.32 44.84) rotate(-35.26)"/>
    <rect class="cls-6" x="53.61" y="30.02" width="12.36" height="3.22" transform="translate(-7.29 40.32) rotate(-35.26)"/>
    <rect class="cls-6" x="61.84" y="20.25" width="12.36" height="3.22" transform="translate(-.14 43.28) rotate(-35.26)"/>
    <rect class="cls-6" x="51.75" y="27.39" width="12.36" height="3.22" transform="translate(-6.11 38.76) rotate(-35.26)"/>
    <rect class="cls-6" x="59.98" y="17.62" width="12.36" height="3.23" transform="translate(1.04 41.72) rotate(-35.26)"/>
    <rect class="cls-48" x="49.89" y="24.75" width="12.36" height="3.23" transform="translate(-4.93 37.2) rotate(-35.26)"/>
    <rect class="cls-48" x="58.12" y="14.98" width="12.36" height="3.22" transform="translate(2.21 40.16) rotate(-35.26)"/>
    <rect class="cls-48" x="48.03" y="22.12" width="12.36" height="3.22" transform="translate(-3.76 35.65) rotate(-35.26)"/>
    <rect class="cls-48" x="56.26" y="12.35" width="12.36" height="3.22" transform="translate(3.39 38.6) rotate(-35.26)"/>
    <rect class="cls-48" x="46.17" y="19.49" width="12.36" height="3.22" transform="translate(-2.58 34.09) rotate(-35.26)"/>
    <rect class="cls-48" x="54.4" y="9.72" width="12.36" height="3.22" transform="translate(4.57 37.05) rotate(-35.26)"/>
    <rect class="cls-6" x="44.31" y="16.85" width="12.36" height="3.23" transform="translate(-1.4 32.53) rotate(-35.26)"/>
    <rect class="cls-48" x="52.54" y="7.08" width="12.36" height="3.22" transform="translate(5.75 35.49) rotate(-35.26)"/>
    <rect class="cls-48" x="42.44" y="14.22" width="12.36" height="3.22" transform="translate(-.22 30.97) rotate(-35.26)"/>
    <rect class="cls-66" x="50.67" y="4.45" width="12.36" height="3.23" transform="translate(6.93 33.93) rotate(-35.26)"/>
    <rect class="cls-66" x="40.58" y="11.59" width="12.36" height="3.23" transform="translate(.96 29.41) rotate(-35.26)"/>
    <rect class="cls-66" x="71.15" y="33.42" width="12.36" height="3.23" transform="translate(-6.04 51.07) rotate(-35.26)"/>
    <rect class="cls-48" x="69.29" y="30.78" width="12.36" height="3.23" transform="translate(-4.86 49.51) rotate(-35.26)"/>
    <rect class="cls-48" x="67.43" y="28.15" width="12.36" height="3.22" transform="translate(-3.68 47.95) rotate(-35.26)"/>
    <rect class="cls-6" x="57.34" y="35.29" width="12.36" height="3.22" transform="translate(-9.65 43.43) rotate(-35.26)"/>
    <rect class="cls-6" x="65.57" y="25.52" width="12.36" height="3.23" transform="translate(-2.5 46.39) rotate(-35.26)"/>
    <rect class="cls-48" x="55.48" y="32.65" width="12.36" height="3.23" transform="translate(-8.47 41.88) rotate(-35.26)"/>
    <rect class="cls-6" x="63.71" y="22.88" width="12.36" height="3.22" transform="translate(-1.32 44.84) rotate(-35.26)"/>
    <rect class="cls-6" x="53.61" y="30.02" width="12.36" height="3.22" transform="translate(-7.29 40.32) rotate(-35.26)"/>
    <rect class="cls-6" x="61.84" y="20.25" width="12.36" height="3.22" transform="translate(-.14 43.28) rotate(-35.26)"/>
    <rect class="cls-6" x="51.75" y="27.39" width="12.36" height="3.22" transform="translate(-6.11 38.76) rotate(-35.26)"/>
    <rect class="cls-6" x="59.98" y="17.62" width="12.36" height="3.23" transform="translate(1.04 41.72) rotate(-35.26)"/>
    <rect class="cls-48" x="49.89" y="24.75" width="12.36" height="3.23" transform="translate(-4.93 37.2) rotate(-35.26)"/>
    <rect class="cls-48" x="58.12" y="14.98" width="12.36" height="3.22" transform="translate(2.21 40.16) rotate(-35.26)"/>
    <rect class="cls-48" x="48.03" y="22.12" width="12.36" height="3.22" transform="translate(-3.76 35.65) rotate(-35.26)"/>
    <rect class="cls-48" x="56.26" y="12.35" width="12.36" height="3.22" transform="translate(3.39 38.6) rotate(-35.26)"/>
    <rect class="cls-48" x="46.17" y="19.49" width="12.36" height="3.22" transform="translate(-2.58 34.09) rotate(-35.26)"/>
    <rect class="cls-48" x="54.4" y="9.72" width="12.36" height="3.22" transform="translate(4.57 37.05) rotate(-35.26)"/>
    <rect class="cls-6" x="44.31" y="16.85" width="12.36" height="3.23" transform="translate(-1.4 32.53) rotate(-35.26)"/>
    <rect class="cls-48" x="52.54" y="7.08" width="12.36" height="3.22" transform="translate(5.75 35.49) rotate(-35.26)"/>
    <rect class="cls-48" x="42.44" y="14.22" width="12.36" height="3.22" transform="translate(-.22 30.97) rotate(-35.26)"/>
    <rect class="cls-66" x="50.67" y="4.45" width="12.36" height="3.23" transform="translate(6.93 33.93) rotate(-35.26)"/>
    <rect class="cls-66" x="40.58" y="11.59" width="12.36" height="3.23" transform="translate(.96 29.41) rotate(-35.26)"/>
    <rect class="cls-66" x="74.62" y="35.67" width="12.36" height="3.22" transform="translate(-1.26 2.86) rotate(-2.01)"/>
    <rect class="cls-48" x="74.51" y="32.45" width="12.36" height="3.23" transform="translate(-1.15 2.85) rotate(-2.01)"/>
    <rect class="cls-48" x="62.15" y="32.88" width="12.36" height="3.23" transform="translate(-1.17 2.42) rotate(-2.01)"/>
    <rect class="cls-48" x="74.39" y="29.22" width="12.36" height="3.22" transform="translate(-1.03 2.85) rotate(-2.01)"/>
    <rect class="cls-6" x="62.04" y="29.66" width="12.36" height="3.22" transform="translate(-1.06 2.41) rotate(-2.01)"/>
    <rect class="cls-6" x="74.28" y="26" width="12.36" height="3.23" transform="translate(-.92 2.84) rotate(-2.01)"/>
    <rect class="cls-48" x="61.93" y="26.43" width="12.36" height="3.23" transform="translate(-.94 2.41) rotate(-2.01)"/>
    <rect class="cls-6" x="74.17" y="22.78" width="12.36" height="3.22" transform="translate(-.81 2.84) rotate(-2.01)"/>
    <rect class="cls-6" x="61.81" y="23.21" width="12.36" height="3.22" transform="translate(-.83 2.4) rotate(-2.01)"/>
    <rect class="cls-6" x="74.05" y="19.55" width="12.36" height="3.22" transform="translate(-.69 2.83) rotate(-2.01)"/>
    <rect class="cls-6" x="61.7" y="19.99" width="12.36" height="3.22" transform="translate(-.72 2.4) rotate(-2.01)"/>
    <rect class="cls-6" x="73.94" y="16.33" width="12.36" height="3.23" transform="translate(-.58 2.82) rotate(-2.01)"/>
    <rect class="cls-48" x="61.59" y="16.76" width="12.36" height="3.23" transform="translate(-.6 2.39) rotate(-2.01)"/>
    <rect class="cls-48" x="73.83" y="13.11" width="12.36" height="3.22" transform="translate(-.47 2.82) rotate(-2.01)"/>
    <rect class="cls-48" x="61.47" y="13.54" width="12.36" height="3.22" transform="translate(-.49 2.38) rotate(-2.01)"/>
    <rect class="cls-48" x="73.71" y="9.88" width="12.36" height="3.22" transform="translate(-.35 2.81) rotate(-2.01)"/>
    <rect class="cls-48" x="61.36" y="10.32" width="12.36" height="3.22" transform="translate(-.38 2.38) rotate(-2.01)"/>
    <rect class="cls-48" x="73.6" y="6.66" width="12.36" height="3.23" transform="translate(-.24 2.81) rotate(-2.01)"/>
    <rect class="cls-6" x="61.25" y="7.1" width="12.36" height="3.23" transform="translate(-.26 2.37) rotate(-2.01)"/>
    <rect class="cls-48" x="73.49" y="3.44" width="12.36" height="3.22" transform="translate(-.13 2.8) rotate(-2.01)"/>
    <rect class="cls-48" x="61.14" y="3.87" width="12.36" height="3.22" transform="translate(-.15 2.37) rotate(-2.01)"/>
    <rect class="cls-66" x="73.37" y=".22" width="12.36" height="3.23" transform="translate(-.02 2.79) rotate(-2.01)"/>
    <rect class="cls-66" x="61.02" y=".65" width="12.36" height="3.23" transform="translate(-.04 2.36) rotate(-2.01)"/>
    <rect class="cls-66" x="74.62" y="35.67" width="12.36" height="3.22" transform="translate(-1.26 2.86) rotate(-2.01)"/>
    <rect class="cls-48" x="74.51" y="32.45" width="12.36" height="3.23" transform="translate(-1.15 2.85) rotate(-2.01)"/>
    <rect class="cls-35" x="62.15" y="32.88" width="12.36" height="3.23" transform="translate(-1.17 2.42) rotate(-2.01)"/>
    <rect class="cls-48" x="74.39" y="29.22" width="12.36" height="3.22" transform="translate(-1.03 2.85) rotate(-2.01)"/>
    <rect class="cls-6" x="62.04" y="29.66" width="12.36" height="3.22" transform="translate(-1.06 2.41) rotate(-2.01)"/>
    <rect class="cls-6" x="74.28" y="26" width="12.36" height="3.23" transform="translate(-.92 2.84) rotate(-2.01)"/>
    <rect class="cls-48" x="61.93" y="26.43" width="12.36" height="3.23" transform="translate(-.94 2.41) rotate(-2.01)"/>
    <rect class="cls-6" x="74.17" y="22.78" width="12.36" height="3.22" transform="translate(-.81 2.84) rotate(-2.01)"/>
    <rect class="cls-6" x="61.81" y="23.21" width="12.36" height="3.22" transform="translate(-.83 2.4) rotate(-2.01)"/>
    <rect class="cls-6" x="74.05" y="19.55" width="12.36" height="3.22" transform="translate(-.69 2.83) rotate(-2.01)"/>
    <rect class="cls-6" x="61.7" y="19.99" width="12.36" height="3.22" transform="translate(-.72 2.4) rotate(-2.01)"/>
    <rect class="cls-6" x="73.94" y="16.33" width="12.36" height="3.23" transform="translate(-.58 2.82) rotate(-2.01)"/>
    <rect class="cls-48" x="61.59" y="16.76" width="12.36" height="3.23" transform="translate(-.6 2.39) rotate(-2.01)"/>
    <rect class="cls-48" x="73.83" y="13.11" width="12.36" height="3.22" transform="translate(-.47 2.82) rotate(-2.01)"/>
    <rect class="cls-48" x="61.47" y="13.54" width="12.36" height="3.22" transform="translate(-.49 2.38) rotate(-2.01)"/>
    <rect class="cls-48" x="73.71" y="9.88" width="12.36" height="3.22" transform="translate(-.35 2.81) rotate(-2.01)"/>
    <rect class="cls-48" x="61.36" y="10.32" width="12.36" height="3.22" transform="translate(-.38 2.38) rotate(-2.01)"/>
    <rect class="cls-48" x="73.6" y="6.66" width="12.36" height="3.23" transform="translate(-.24 2.81) rotate(-2.01)"/>
    <rect class="cls-6" x="61.25" y="7.1" width="12.36" height="3.23" transform="translate(-.26 2.37) rotate(-2.01)"/>
    <rect class="cls-48" x="73.49" y="3.44" width="12.36" height="3.22" transform="translate(-.13 2.8) rotate(-2.01)"/>
    <rect class="cls-48" x="61.14" y="3.87" width="12.36" height="3.22" transform="translate(-.15 2.37) rotate(-2.01)"/>
    <rect class="cls-66" x="73.37" y=".22" width="12.36" height="3.23" transform="translate(-.02 2.79) rotate(-2.01)"/>
    <rect class="cls-66" x="61.02" y=".65" width="12.36" height="3.23" transform="translate(-.04 2.36) rotate(-2.01)"/>
    <rect class="cls-66" x="76.75" y="43.63" width="3.23" height="12.36" transform="translate(-13.38 35.46) rotate(-23.55)"/>
    <rect class="cls-48" x="79.71" y="42.35" width="3.23" height="12.36" transform="translate(-12.62 36.53) rotate(-23.55)"/>
    <rect class="cls-48" x="74.77" y="31.02" width="3.23" height="12.36" transform="translate(-8.5 33.62) rotate(-23.55)"/>
    <rect class="cls-48" x="82.66" y="41.06" width="3.22" height="12.36" transform="translate(-11.85 37.61) rotate(-23.55)"/>
    <rect class="cls-6" x="77.73" y="29.73" width="3.22" height="12.36" transform="translate(-7.74 34.69) rotate(-23.55)"/>
    <rect class="cls-6" x="85.62" y="39.77" width="3.22" height="12.36" transform="translate(-11.09 38.68) rotate(-23.55)"/>
    <rect class="cls-48" x="80.68" y="28.44" width="3.23" height="12.36" transform="translate(-6.98 35.77) rotate(-23.55)"/>
    <rect class="cls-6" x="88.58" y="38.48" width="3.23" height="12.36" transform="translate(-10.33 39.76) rotate(-23.55)"/>
    <rect class="cls-6" x="83.64" y="27.15" width="3.23" height="12.36" transform="translate(-6.22 36.84) rotate(-23.55)"/>
    <rect class="cls-6" x="91.53" y="37.19" width="3.22" height="12.36" transform="translate(-9.57 40.83) rotate(-23.55)"/>
    <rect class="cls-6" x="86.6" y="25.86" width="3.22" height="12.36" transform="translate(-5.46 37.91) rotate(-23.55)"/>
    <rect class="cls-6" x="94.49" y="35.9" width="3.23" height="12.36" transform="translate(-8.81 41.9) rotate(-23.55)"/>
    <rect class="cls-48" x="89.55" y="24.57" width="3.23" height="12.36" transform="translate(-4.69 38.99) rotate(-23.55)"/>
    <rect class="cls-48" x="97.45" y="34.61" width="3.22" height="12.36" transform="translate(-8.05 42.98) rotate(-23.55)"/>
    <rect class="cls-48" x="92.51" y="23.28" width="3.22" height="12.36" transform="translate(-3.93 40.06) rotate(-23.55)"/>
    <rect class="cls-48" x="100.4" y="33.33" width="3.22" height="12.36" transform="translate(-7.29 44.05) rotate(-23.55)"/>
    <rect class="cls-48" x="95.46" y="22" width="3.22" height="12.36" transform="translate(-3.17 41.13) rotate(-23.55)"/>
    <rect class="cls-48" x="103.36" y="32.04" width="3.23" height="12.36" transform="translate(-6.53 45.13) rotate(-23.55)"/>
    <rect class="cls-6" x="98.42" y="20.71" width="3.23" height="12.36" transform="translate(-2.41 42.21) rotate(-23.55)"/>
    <rect class="cls-48" x="106.32" y="30.75" width="3.22" height="12.36" transform="translate(-5.77 46.2) rotate(-23.55)"/>
    <rect class="cls-48" x="101.38" y="19.42" width="3.22" height="12.36" transform="translate(-1.65 43.28) rotate(-23.55)"/>
    <rect class="cls-66" x="109.27" y="29.46" width="3.23" height="12.36" transform="translate(-5 47.27) rotate(-23.55)"/>
    <rect class="cls-66" x="104.33" y="18.13" width="3.23" height="12.36" transform="translate(-.89 44.36) rotate(-23.55)"/>
    <rect class="cls-66" x="76.75" y="43.63" width="3.23" height="12.36" transform="translate(-13.38 35.46) rotate(-23.55)"/>
    <rect class="cls-48" x="79.71" y="42.35" width="3.23" height="12.36" transform="translate(-12.62 36.53) rotate(-23.55)"/>
    <rect class="cls-48" x="74.77" y="31.02" width="3.23" height="12.36" transform="translate(-8.5 33.62) rotate(-23.55)"/>
    <rect class="cls-48" x="82.66" y="41.06" width="3.22" height="12.36" transform="translate(-11.85 37.61) rotate(-23.55)"/>
    <rect class="cls-6" x="77.73" y="29.73" width="3.22" height="12.36" transform="translate(-7.74 34.69) rotate(-23.55)"/>
    <rect class="cls-6" x="85.62" y="39.77" width="3.22" height="12.36" transform="translate(-11.09 38.68) rotate(-23.55)"/>
    <rect class="cls-48" x="80.68" y="28.44" width="3.23" height="12.36" transform="translate(-6.98 35.77) rotate(-23.55)"/>
    <rect class="cls-6" x="88.58" y="38.48" width="3.23" height="12.36" transform="translate(-10.33 39.76) rotate(-23.55)"/>
    <rect class="cls-6" x="83.64" y="27.15" width="3.23" height="12.36" transform="translate(-6.22 36.84) rotate(-23.55)"/>
    <rect class="cls-6" x="91.53" y="37.19" width="3.22" height="12.36" transform="translate(-9.57 40.83) rotate(-23.55)"/>
    <rect class="cls-6" x="86.6" y="25.86" width="3.22" height="12.36" transform="translate(-5.46 37.91) rotate(-23.55)"/>
    <rect class="cls-6" x="94.49" y="35.9" width="3.23" height="12.36" transform="translate(-8.81 41.9) rotate(-23.55)"/>
    <rect class="cls-48" x="89.55" y="24.57" width="3.23" height="12.36" transform="translate(-4.69 38.99) rotate(-23.55)"/>
    <rect class="cls-48" x="97.45" y="34.61" width="3.22" height="12.36" transform="translate(-8.05 42.98) rotate(-23.55)"/>
    <rect class="cls-48" x="92.51" y="23.28" width="3.22" height="12.36" transform="translate(-3.93 40.06) rotate(-23.55)"/>
    <rect class="cls-48" x="100.4" y="33.33" width="3.22" height="12.36" transform="translate(-7.29 44.05) rotate(-23.55)"/>
    <rect class="cls-48" x="95.46" y="22" width="3.22" height="12.36" transform="translate(-3.17 41.13) rotate(-23.55)"/>
    <rect class="cls-48" x="103.36" y="32.04" width="3.23" height="12.36" transform="translate(-6.53 45.13) rotate(-23.55)"/>
    <rect class="cls-6" x="98.42" y="20.71" width="3.23" height="12.36" transform="translate(-2.41 42.21) rotate(-23.55)"/>
    <rect class="cls-48" x="106.32" y="30.75" width="3.22" height="12.36" transform="translate(-5.77 46.2) rotate(-23.55)"/>
    <rect class="cls-48" x="101.38" y="19.42" width="3.22" height="12.36" transform="translate(-1.65 43.28) rotate(-23.55)"/>
    <rect class="cls-66" x="109.27" y="29.46" width="3.23" height="12.36" transform="translate(-5 47.27) rotate(-23.55)"/>
    <rect class="cls-66" x="104.33" y="18.13" width="3.23" height="12.36" transform="translate(-.89 44.36) rotate(-23.55)"/>
    <rect class="cls-48" x="74.73" y="31.4" width="3.23" height="12.97" transform="translate(-4.18 65.81) rotate(-45.52)"/>
    <rect class="cls-48" x="65.47" y="22.32" width="3.23" height="12.97" transform="translate(-.47 56.49) rotate(-45.52)"/>
    <rect class="cls-48" x="103.03" y="90.13" width="12.97" height="3.22" transform="translate(-8.8 11.67) rotate(-5.86)"/>
    <rect class="cls-6" x="67.73" y="20.02" width="3.22" height="12.97" transform="translate(1.85 57.41) rotate(-45.52)"/>
    <rect class="cls-6" x="79.25" y="26.8" width="3.23" height="12.97" transform="translate(.46 67.66) rotate(-45.52)"/>
    <rect class="cls-48" x="69.99" y="17.71" width="3.23" height="12.97" transform="translate(4.17 58.34) rotate(-45.52)"/>
    <rect class="cls-6" x="81.5" y="24.5" width="3.22" height="12.97" transform="translate(2.78 68.58) rotate(-45.52)"/>
    <rect class="cls-6" x="72.25" y="15.41" width="3.22" height="12.97" transform="translate(6.49 59.26) rotate(-45.52)"/>
    <rect class="cls-6" x="83.76" y="22.2" width="3.22" height="12.97" transform="translate(5.09 69.5) rotate(-45.52)"/>
    <rect class="cls-6" x="74.51" y="13.11" width="3.22" height="12.97" transform="translate(8.81 60.18) rotate(-45.52)"/>
    <rect class="cls-6" x="86.02" y="19.9" width="3.23" height="12.97" transform="translate(7.41 70.43) rotate(-45.52)"/>
    <rect class="cls-48" x="76.77" y="10.81" width="3.23" height="12.97" transform="translate(11.13 61.11) rotate(-45.52)"/>
    <rect class="cls-48" x="88.28" y="17.59" width="3.22" height="12.97" transform="translate(9.73 71.35) rotate(-45.52)"/>
    <rect class="cls-48" x="79.03" y="8.51" width="3.22" height="12.97" transform="translate(13.44 62.03) rotate(-45.52)"/>
    <rect class="cls-48" x="90.54" y="15.29" width="3.22" height="12.97" transform="translate(12.05 72.27) rotate(-45.52)"/>
    <rect class="cls-48" x="81.29" y="6.21" width="3.22" height="12.97" transform="translate(15.76 62.95) rotate(-45.52)"/>
    <rect class="cls-48" x="92.8" y="12.99" width="3.22" height="12.97" transform="translate(14.37 73.2) rotate(-45.52)"/>
    <rect class="cls-6" x="83.55" y="3.91" width="3.23" height="12.97" transform="translate(18.08 63.88) rotate(-45.52)"/>
    <rect class="cls-48" x="95.06" y="10.69" width="3.22" height="12.97" transform="translate(16.69 74.12) rotate(-45.52)"/>
    <rect class="cls-48" x="85.81" y="1.61" width="3.22" height="12.97" transform="translate(20.4 64.8) rotate(-45.52)"/>
    <rect class="cls-66" x="97.32" y="8.39" width="3.23" height="12.97" transform="translate(19 75.04) rotate(-45.52)"/>
    <rect class="cls-66" x="88.07" y="-.69" width="3.23" height="12.97" transform="translate(22.72 65.72) rotate(-45.52)"/>
    <rect class="cls-66" x="73.11" y="36.91" width="3.23" height="9.74" transform="translate(-10.67 35.65) rotate(-25.11)"/>
    <rect class="cls-48" x="74.73" y="31.4" width="3.23" height="12.97" transform="translate(-4.18 65.81) rotate(-45.52)"/>
    <rect class="cls-48" x="65.47" y="22.32" width="3.23" height="12.97" transform="translate(-.47 56.49) rotate(-45.52)"/>
    <rect class="cls-48" x="76.99" y="29.1" width="3.22" height="12.97" transform="translate(-1.86 66.73) rotate(-45.52)"/>
    <rect class="cls-6" x="67.73" y="20.02" width="3.22" height="12.97" transform="translate(1.85 57.41) rotate(-45.52)"/>
    <rect class="cls-6" x="79.25" y="26.8" width="3.23" height="12.97" transform="translate(.46 67.66) rotate(-45.52)"/>
    <rect class="cls-48" x="69.99" y="17.71" width="3.23" height="12.97" transform="translate(4.17 58.34) rotate(-45.52)"/>
    <rect class="cls-6" x="81.5" y="24.5" width="3.22" height="12.97" transform="translate(2.78 68.58) rotate(-45.52)"/>
    <rect class="cls-6" x="72.25" y="15.41" width="3.22" height="12.97" transform="translate(6.49 59.26) rotate(-45.52)"/>
    <rect class="cls-6" x="83.76" y="22.2" width="3.22" height="12.97" transform="translate(5.09 69.5) rotate(-45.52)"/>
    <rect class="cls-6" x="74.51" y="13.11" width="3.22" height="12.97" transform="translate(8.81 60.18) rotate(-45.52)"/>
    <rect class="cls-6" x="86.02" y="19.9" width="3.23" height="12.97" transform="translate(7.41 70.43) rotate(-45.52)"/>
    <rect class="cls-48" x="76.77" y="10.81" width="3.23" height="12.97" transform="translate(11.13 61.11) rotate(-45.52)"/>
    <rect class="cls-48" x="88.28" y="17.59" width="3.22" height="12.97" transform="translate(9.73 71.35) rotate(-45.52)"/>
    <rect class="cls-48" x="79.03" y="8.51" width="3.22" height="12.97" transform="translate(13.44 62.03) rotate(-45.52)"/>
    <rect class="cls-48" x="90.54" y="15.29" width="3.22" height="12.97" transform="translate(12.05 72.27) rotate(-45.52)"/>
    <rect class="cls-48" x="81.29" y="6.21" width="3.22" height="12.97" transform="translate(15.76 62.95) rotate(-45.52)"/>
    <rect class="cls-48" x="92.8" y="12.99" width="3.22" height="12.97" transform="translate(14.37 73.2) rotate(-45.52)"/>
    <rect class="cls-6" x="83.55" y="3.91" width="3.23" height="12.97" transform="translate(18.08 63.88) rotate(-45.52)"/>
    <rect class="cls-48" x="95.06" y="10.69" width="3.22" height="12.97" transform="translate(16.69 74.12) rotate(-45.52)"/>
    <rect class="cls-48" x="85.81" y="1.61" width="3.22" height="12.97" transform="translate(20.4 64.8) rotate(-45.52)"/>
    <rect class="cls-66" x="97.32" y="8.39" width="3.23" height="12.97" transform="translate(19 75.04) rotate(-45.52)"/>
    <rect class="cls-66" x="88.07" y="-.69" width="3.23" height="12.97" transform="translate(22.72 65.72) rotate(-45.52)"/>
    <rect class="cls-6" x="120.08" y="80.19" width="5.43" height="11.73" transform="translate(-9.14 14.8) rotate(-6.65)"/>
    <rect class="cls-6" x="118.72" y="68.54" width="5.43" height="11.73" transform="translate(-7.8 14.57) rotate(-6.65)"/>
    <rect class="cls-39" x="125.48" y="79.57" width="5.43" height="11.73" transform="translate(-9.03 15.42) rotate(-6.65)"/>
    <rect class="cls-39" x="122.13" y="68.03" width="7.43" height="11.73" transform="translate(-7.71 15.07) rotate(-6.65)"/>
    <rect class="cls-66" x="69.58" y="36.93" width="3.23" height="2.25" transform="translate(32.99 109.17) rotate(-89.88)"/>
    <rect class="cls-66" x="68.25" y="36.9" width="2.96" height="3.22" transform="translate(-9.18 49.37) rotate(-36.75)"/>
    <rect class="cls-66" x="65.57" y="38.92" width="4.36" height="3.22" transform="translate(-4.43 72.5) rotate(-54.78)"/>
    <rect class="cls-10" x="100.53" y="71.41" width="3.22" height="3.22" transform="translate(-7.65 12.11) rotate(-6.54)"/>
    <rect class="cls-66" x="103.73" y="71.04" width="3.22" height="3.22" transform="translate(-7.59 12.47) rotate(-6.54)"/>
    <rect class="cls-66" x="106.94" y="70.67" width="3.23" height="3.22" transform="translate(-7.53 12.84) rotate(-6.54)"/>
  </g>
</svg>