<svg width="500" height="500" viewBox="0 0 500 500" xmlns="http://www.w3.org/2000/svg">
  <!-- Left ear (extended up) -->
  <rect x="305" y="290" width="15" height="15" fill="#000"/>
  <rect x="305" y="305" width="15" height="15" fill="#000"/>
  <rect x="320" y="320" width="15" height="15" fill="#000"/>
  <rect x="335" y="335" width="15" height="15" fill="#000"/>
  <rect x="350" y="350" width="15" height="15" fill="#000"/>
  
  <!-- Right ear (extended up) -->
  <rect x="380" y="185" width="15" height="15" fill="#000"/>
  <rect x="380" y="200" width="15" height="15" fill="#000"/>
  <rect x="395" y="215" width="15" height="15" fill="#000"/>
  <rect x="410" y="230" width="15" height="15" fill="#000"/>
  <rect x="425" y="245" width="15" height="15" fill="#000"/>
  
  <!-- Head outline -->
  <rect x="305" y="320" width="15" height="15" fill="#000"/>
  <rect x="320" y="335" width="15" height="15" fill="#000"/>
  <rect x="335" y="350" width="15" height="15" fill="#000"/>
  <rect x="350" y="365" width="15" height="15" fill="#000"/>
  <rect x="365" y="380" width="15" height="15" fill="#000"/>
  <rect x="380" y="395" width="15" height="15" fill="#000"/>
  <rect x="395" y="410" width="15" height="15" fill="#000"/>
  <rect x="410" y="425" width="15" height="15" fill="#000"/>
  <rect x="425" y="440" width="15" height="15" fill="#000"/>
  <rect x="440" y="455" width="15" height="15" fill="#000"/>
  
  <rect x="455" y="260" width="15" height="15" fill="#000"/>
  <rect x="455" y="275" width="15" height="15" fill="#000"/>
  <rect x="455" y="290" width="15" height="15" fill="#000"/>
  <rect x="455" y="305" width="15" height="15" fill="#000"/>
  <rect x="455" y="320" width="15" height="15" fill="#000"/>
  <rect x="455" y="335" width="15" height="15" fill="#000"/>
  <rect x="455" y="350" width="15" height="15" fill="#000"/>
  <rect x="455" y="365" width="15" height="15" fill="#000"/>
  <rect x="455" y="380" width="15" height="15" fill="#000"/>
  <rect x="455" y="395" width="15" height="15" fill="#000"/>
  <rect x="455" y="410" width="15" height="15" fill="#000"/>
  <rect x="455" y="425" width="15" height="15" fill="#000"/>
  <rect x="455" y="440" width="15" height="15" fill="#000"/>
  
  <!-- Head fill -->
  <rect x="320" y="350" width="15" height="15" fill="#FFF"/>
  <rect x="335" y="365" width="15" height="15" fill="#FFF"/>
  <rect x="350" y="380" width="15" height="15" fill="#FFF"/>
  <rect x="365" y="395" width="15" height="15" fill="#FFF"/>
  <rect x="380" y="410" width="15" height="15" fill="#FFF"/>
  <rect x="395" y="425" width="15" height="15" fill="#FFF"/>
  <rect x="410" y="440" width="15" height="15" fill="#FFF"/>
  <rect x="425" y="455" width="15" height="15" fill="#FFF"/>
  
  <rect x="335" y="380" width="15" height="15" fill="#FFF"/>
  <rect x="350" y="395" width="15" height="15" fill="#FFF"/>
  <rect x="365" y="410" width="15" height="15" fill="#FFF"/>
  <rect x="380" y="425" width="15" height="15" fill="#FFF"/>
  <rect x="395" y="440" width="15" height="15" fill="#FFF"/>
  <rect x="410" y="455" width="15" height="15" fill="#FFF"/>
  
  <rect x="350" y="410" width="15" height="15" fill="#FFF"/>
  <rect x="365" y="425" width="15" height="15" fill="#FFF"/>
  <rect x="380" y="440" width="15" height="15" fill="#FFF"/>
  <rect x="395" y="455" width="15" height="15" fill="#FFF"/>
  
  <rect x="365" y="440" width="15" height="15" fill="#FFF"/>
  <rect x="380" y="455" width="15" height="15" fill="#FFF"/>
  
  <!-- Eyes -->
  <rect x="365" y="425" width="15" height="15" fill="#000"/>
  <rect x="395" y="440" width="15" height="15" fill="#000"/>
  
  <!-- Body outline -->
  <rect x="305" y="335" width="15" height="15" fill="#000"/>
  <rect x="320" y="350" width="15" height="15" fill="#000"/>
  <rect x="335" y="365" width="15" height="15" fill="#000"/>
  <rect x="350" y="380" width="15" height="15" fill="#000"/>
  <rect x="365" y="365" width="15" height="15" fill="#000"/>
  <rect x="380" y="350" width="15" height="15" fill="#000"/>
  <rect x="395" y="335" width="15" height="15" fill="#000"/>
  <rect x="410" y="320" width="15" height="15" fill="#000"/>
  <rect x="425" y="305" width="15" height="15" fill="#000"/>
  <rect x="440" y="290" width="15" height="15" fill="#000"/>
  <rect x="440" y="275" width="15" height="15" fill="#000"/>
  <rect x="440" y="260" width="15" height="15" fill="#000"/>
</svg>