<svg xmlns="http://www.w3.org/2000/svg" viewBox="0 0 320 320" width="320" height="320">
  <!-- 픽셀 단위 크기 설정 (각 픽셀은 16x16 유닛으로 확대) -->
  
  <!-- 고양이 픽셀 아트 - 1.6배 확대 및 중앙 정렬 -->
  <g id="pixel-cat" transform="scale(1.6) translate(-10, 20)">
    <!-- 꼬리 부분 -->
  <rect x="60" y="150" width="10" height="10" fill="#000"/>
  <rect x="50" y="150" width="10" height="10" fill="#000"/>
  <rect x="50" y="140" width="10" height="10" fill="#fff"/>
  <rect x="60" y="140" width="10" height="10" fill="#fff"/>
  <rect x="60" y="160" width="10" height="10" fill="#000"/>
    <rect x="50" y="160" width="10" height="10" fill="#000"/>
    <rect x="50" y="150" width="10" height="10" fill="#fff"/>
    <rect x="60" y="150" width="10" height="10" fill="#fff"/>
    <rect x="40" y="140" width="10" height="10" fill="#fff"/>
    <rect x="30" y="140" width="10" height="10" fill="#000"/>
    <rect x="30" y="130" width="10" height="10" fill="#fff"/>
    <rect x="20" y="130" width="10" height="10" fill="#000"/>
    <rect x="20" y="120" width="10" height="10" fill="#fff"/>
    <rect x="20" y="110" width="10" height="10" fill="#fff"/>
    <rect x="40" y="150" width="10" height="10" fill="#000"/>
    <rect x="30" y="150" width="10" height="10" fill="#000"/>
    <rect x="20" y="140" width="10" height="10" fill="#000"/>
    <rect x="10" y="130" width="10" height="10" fill="#000"/>
    <rect x="10" y="120" width="10" height="10" fill="#000"/>
    <rect x="10" y="110" width="10" height="10" fill="#000"/>
    <rect x="20" y="100" width="10" height="10" fill="#000"/>
    <rect x="30" y="110" width="10" height="10" fill="#000"/>
    <rect x="40" y="130" width="10" height="10" fill="#000"/>
    <rect x="30" y="120" width="10" height="10" fill="#000"/>
    <rect x="50" y="140" width="10" height="10" fill="#000"/>
    <rect x="60" y="140" width="10" height="10" fill="#000"/>
  <rect x="70" y="60" width="10" height="10" fill="#000"/>
  <rect x="70" y="50" width="10" height="10" fill="#000"/>
  <rect x="70" y="40" width="10" height="10" fill="#000"/>
  <rect x="80" y="40" width="10" height="10" fill="#000"/>
  <rect x="90" y="50" width="10" height="10" fill="#000"/>
  <rect x="100" y="60" width="10" height="10" fill="#000"/>
  <rect x="110" y="70" width="10" height="10" fill="#000"/>
  <rect x="70" y="70" width="10" height="10" fill="#000"/>
    
    <!-- 왼쪽 귀 안쪽 (회색,흰색) -->
  <rect x="80" y="70" width="10" height="20" fill="#808080"/>
  <rect x="80" y="60" width="10" height="20" fill="#808080"/>
  <rect x="90" y="70" width="10" height="10" fill="#808080"/>
  <rect x="90" y="80" width="10" height="10" fill="#808080"/>

  <!-- <rect x="100" y="60" width="10" height="10" fill="#fff"/> -->
  <!-- <rect x="110" y="60" width="10" height="10" fill="#fff"/> -->
  <rect x="80" y="50" width="10" height="10" fill="#fff"/>
  <rect x="90" y="60" width="10" height="10" fill="#fff"/>
  <rect x="100" y="70" width="10" height="10" fill="#fff"/>
  <rect x="100" y="80" width="10" height="10" fill="#fff"/>
  <rect x="110" y="80" width="10" height="10" fill="#fff"/>
    
    <!-- 오른쪽 귀 -->
  <rect x="200" y="70" width="10" height="10" fill="#000"/>
  <rect x="200" y="60" width="10" height="10" fill="#000"/>
  <rect x="200" y="50" width="10" height="10" fill="#000"/>
  <rect x="200" y="40" width="10" height="10" fill="#000"/>
  <rect x="200" y="40" width="10" height="10" fill="#000"/>
  <rect x="190" y="40" width="10" height="10" fill="#000"/>
  <rect x="180" y="50" width="10" height="10" fill="#000"/>
  <rect x="170" y="60" width="10" height="10" fill="#000"/>
  <rect x="160" y="70" width="10" height="10" fill="#000"/>
 
    <!-- 오른쪽 귀 안쪽 (회색,흰색) -->
    <!-- <rect x="200" y="70" width="20" height="10" fill="#808080"/> -->
    <rect x="210" y="70" width="10" height="10" fill="#808080"/>
    <rect x="210" y="60" width="10" height="20" fill="#808080"/>
    <rect x="210" y="80" width="10" height="20" fill="#808080"/>
  <rect x="180" y="70" width="20" height="10" fill="#808080"/>
  <rect x="190" y="70" width="10" height="10" fill="#808080"/>
  <rect x="190" y="60" width="10" height="20" fill="#808080"/>
  <rect x="190" y="80" width="10" height="20" fill="#808080"/>
  <rect x="180" y="80" width="10" height="20" fill="#808080"/>
  <rect x="170" y="80" width="10" height="20" fill="#fff"/>
  <rect x="170" y="70" width="10" height="10" fill="#fff"/>
  <rect x="180" y="60" width="10" height="10" fill="#fff"/>
  <rect x="190" y="50" width="10" height="10" fill="#fff"/>
  <rect x="160" y="80" width="10" height="10" fill="#fff"/>
  <rect x="70" y="90" width="10" height="10" fill="#000"/>
  <rect x="70" y="100" width="10" height="10" fill="#000"/>
  <rect x="70" y="110" width="10" height="10" fill="#000"/>
  <rect x="70" y="120" width="10" height="10" fill="#000"/>
  <rect x="70" y="130" width="10" height="10" fill="#000"/>
  <rect x="70" y="140" width="10" height="10" fill="#000"/>
  <rect x="200" y="90" width="10" height="10" fill="#000"/>
  <rect x="200" y="100" width="10" height="10" fill="#000"/>
  <rect x="200" y="110" width="10" height="10" fill="#000"/>
  <rect x="200" y="120" width="10" height="10" fill="#000"/>
  <rect x="200" y="130" width="10" height="10" fill="#000"/>
  <rect x="200" y="140" width="10" height="10" fill="#000"/>
    
    <!-- 머리 상단 -->
  <rect x="70" y="80" width="10" height="10" fill="#000"/>
  <rect x="120" y="80" width="10" height="10" fill="#000"/>
  <rect x="130" y="80" width="10" height="10" fill="#000"/>
  <rect x="140" y="80" width="10" height="10" fill="#000"/>
  <rect x="150" y="80" width="10" height="10" fill="#000"/>
  <rect x="200" y="80" width="10" height="10" fill="#000"/>
    
    <!-- 머리 하단 -->
  <rect x="70" y="150" width="10" height="10" fill="#000"/>
  <rect x="200" y="150" width="10" height="10" fill="#000"/>
    
    <!-- 얼굴 흰색 채우기 -->
  <rect x="80" y="90" width="120" height="80" fill="#fff"/>
  <rect x="90" y="150" width="100" height="20" fill="#fff"/>
    
    <!-- 왼쪽 눈 -->
  <rect x="130" y="130" width="10" height="10" fill="#000"/>
  <rect x="130" y="120" width="10" height="10" fill="#000"/>
    
    <!-- 오른쪽 눈 -->
  <rect x="180" y="120" width="10" height="10" fill="#000"/>
  <rect x="180" y="130" width="10" height="10" fill="#000"/>
    
    <!-- 몸통 윤곽 -->
  <rect x="70" y="160" width="10" height="10" fill="#000"/>
  <rect x="200" y="160" width="10" height="10" fill="#000"/>
    
    <!-- 몸통 하단 -->
  <rect x="80" y="160" width="10" height="10" fill="#000"/>
  <rect x="90" y="170" width="10" height="10" fill="#000"/>
  <rect x="100" y="170" width="10" height="10" fill="#000"/>
  <rect x="110" y="170" width="10" height="10" fill="#000"/>
  <rect x="120" y="170" width="10" height="10" fill="#000"/>
  <rect x="130" y="170" width="10" height="10" fill="#000"/>
  <rect x="140" y="170" width="10" height="10" fill="#000"/>
  <rect x="150" y="170" width="10" height="10" fill="#000"/>
  <rect x="160" y="170" width="10" height="10" fill="#000"/>
  <rect x="170" y="170" width="10" height="10" fill="#000"/>
  <rect x="180" y="170" width="10" height="10" fill="#000"/>
  <rect x="190" y="160" width="10" height="10" fill="#000"/>
  </g>
</svg>