<svg xmlns="http://www.w3.org/2000/svg" viewBox="0 -2 25 28">
  <!-- 픽셀 단위 크기 설정 (각 픽셀은 16x16 유닛으로 확대) -->
  
  <!-- 고양이 픽셀 아트 - 1.6배 확대 및 중앙 정렬 -->
  <g id="pixel-cat">
     <rect x="1" y="17" width="1" height="1" fill="#000"/>
  <rect x="2" y="18" width="1" height="1" fill="#000"/>
  <rect x="3" y="19" width="1" height="1" fill="#000"/>
  <rect x="4" y="20" width="1" height="1" fill="#000"/>
  <rect x="5" y="21" width="1" height="1" fill="#000"/>
  <rect x="6" y="22" width="1" height="1" fill="#000"/>
  <rect x="7" y="23" width="1" height="1" fill="#000"/>
  <rect x="8" y="24" width="1" height="1" fill="#000"/>
  <rect x="9" y="24" width="1" height="1" fill="#000"/>

  <rect x="10" y="23" width="1" height="1" fill="#000"/>

  <rect x="10" y="23" width="1" height="1" fill="#000"/>
  <rect x="11" y="22" width="1" height="1" fill="#000"/>
  <rect x="12" y="21" width="1" height="1" fill="#000"/>
  <rect x="13" y="20" width="1" height="1" fill="#000"/>
  <rect x="14" y="19" width="1" height="1" fill="#000"/>
  <rect x="15" y="18" width="1" height="1" fill="#000"/>
  <rect x="16" y="17" width="1" height="1" fill="#000"/>
  <rect x="17" y="16" width="1" height="1" fill="#000"/>
  <rect x="18" y="15" width="1" height="1" fill="#000"/>
  <rect x="19" y="14" width="1" height="1" fill="#000"/>
  <!-- <rect x="20" y="13" width="1" height="1" fill="#000"/> -->
  <!-- <rect x="21" y="12" width="1" height="1" fill="#000"/> -->


  <rect x="1" y="10" width="1" height="1" fill="#000"/>
  <rect x="2" y="11" width="1" height="1" fill="#000"/>
  <rect x="3" y="12" width="1" height="1" fill="#000"/>
  <rect x="4" y="13" width="1" height="1" fill="#000"/>
  <rect x="5" y="14" width="1" height="1" fill="#000"/>
  <rect x="6" y="15" width="1" height="1" fill="#000"/>
  <rect x="7" y="16" width="1" height="1" fill="#000"/>
  <rect x="8" y="17" width="1" height="1" fill="#000"/>
  <rect x="8" y="18" width="1" height="6" fill="#000"/>

  <rect x="9" y="17" width="1" height="1" fill="#000"/>

  <rect x="10" y="16" width="1" height="1" fill="#000"/>
  <rect x="11" y="15" width="1" height="1" fill="#000"/>
  <rect x="12" y="14" width="1" height="1" fill="#000"/>
  <rect x="13" y="13" width="1" height="1" fill="#000"/>
  <rect x="14" y="12" width="1" height="1" fill="#000"/>
  <rect x="15" y="11" width="1" height="1" fill="#000"/>
  <rect x="16" y="10" width="1" height="1" fill="#000"/>
  <rect x="17" y="9" width="1" height="1" fill="#000"/>
  <rect x="18" y="8" width="1" height="1" fill="#000"/>
  <rect x="19" y="7" width="1" height="8" fill="#000"/>
  <!-- <rect x="20" y="6" width="1" height="1" fill="#000"/> -->
  <!-- <rect x="21" y="5" width="1" height="7" fill="#000"/> -->


  <rect x="1" y="10" width="1" height="7" fill="#000"/>
  <rect x="2" y="9" width="1" height="1" fill="#000"/>
  <rect x="3" y="8" width="1" height="1" fill="#000"/>
  <rect x="4" y="7" width="1" height="1" fill="#000"/>
  <rect x="5" y="6" width="1" height="1" fill="#000"/>
  <rect x="6" y="5" width="1" height="1" fill="#000"/>
  <rect x="7" y="4" width="1" height="1" fill="#000"/>
  <rect x="8" y="3" width="1" height="1" fill="#000"/>
  <rect x="9" y="2" width="1" height="1" fill="#000"/>
  <rect x="10" y="1" width="1" height="1" fill="#000"/>
  <rect x="11" y="0" width="1" height="1" fill="#000"/>
  <rect x="12" y="-1" width="1" height="1" fill="#000"/>


  <rect x="5" y="13" width="1" height="1" fill="#000"/>
  <rect x="6" y="12" width="1" height="1" fill="#000"/>
  <rect x="7" y="11" width="1" height="1" fill="#000"/>
  <rect x="8" y="10" width="1" height="1" fill="#000"/>
  <rect x="9" y="9" width="1" height="1" fill="#000"/>
  <rect x="10" y="8" width="1" height="1" fill="#000"/>
  <rect x="11" y="7" width="1" height="1" fill="#000"/>
  <rect x="12" y="6" width="1" height="1" fill="#000"/>
  <rect x="13" y="5" width="1" height="1" fill="#000"/>
  <rect x="14" y="4" width="1" height="1" fill="#000"/>
  <rect x="15" y="3" width="1" height="1" fill="#000"/>

  <!-- <rect x="12" y="6" width="1" height="1" fill="#000"/>
  <rect x="13" y="7" width="1" height="1" fill="#000"/>
  <rect x="14" y="8" width="1" height="1" fill="#000"/>
  <rect x="15" y="9" width="1" height="1" fill="#000"/> -->


 <rect x="19" y="6" width="1" height="1" fill="#000"/>
  <rect x="18" y="5" width="1" height="1" fill="#000"/>
  <rect x="17" y="4" width="1" height="1" fill="#000"/>
  <rect x="16" y="3" width="1" height="1" fill="#000"/>
  <rect x="15" y="2" width="1" height="1" fill="#000"/>
  <rect x="14" y="1" width="1" height="1" fill="#000"/>
  <rect x="13" y="0" width="1" height="1" fill="#000"/>

  <!-- 상자 색칠 -->
  <!-- 오른쪽 윗 상자 -->
 <!-- <rect x="18" y="6" width="1" height="2" fill="#fff"/> -->
 <rect x="15" y="4" width="2" height="2" fill="#fff"/>
 <rect x="14" y="5" width="4" height="2" fill="#fff"/>
 <rect x="13" y="6" width="6" height="2" fill="#fff"/>
 <rect x="13" y="6" width="5" height="3" fill="#fff"/>
 <rect x="13" y="6" width="4" height="4" fill="#fff"/>
 <rect x="12" y="7" width="4" height="4" fill="#fff"/>
 <rect x="11" y="8" width="4" height="4" fill="#fff"/>
 <rect x="10" y="9" width="4" height="4" fill="#fff"/>
 <rect x="9" y="10" width="4" height="4" fill="#fff"/>
 <rect x="8" y="11" width="4" height="4" fill="#fff"/>
 <rect x="7" y="12" width="4" height="4" fill="#fff"/>
 <rect x="6" y="13" width="4" height="2" fill="#fff"/>
 <rect x="8" y="15" width="2" height="2" fill="#fff"/>
  <!-- 왼쪽 윗 상자 -->
  <rect x="12" y="0" width="1" height="6" fill="#fff"/>
 <rect x="12" y="1" width="2" height="4" fill="#fff"/>
 <rect x="13" y="2" width="2" height="2" fill="#fff"/>
 <rect x="11" y="1" width="1" height="6" fill="#fff"/>
 <rect x="10" y="2" width="1" height="6" fill="#fff"/>
 <rect x="9" y="3" width="1" height="6" fill="#fff"/>
 <rect x="8" y="4" width="1" height="6" fill="#fff"/>
 <rect x="7" y="5" width="1" height="6" fill="#fff"/>
 <rect x="6" y="6" width="1" height="6" fill="#fff"/>
 <rect x="5" y="7" width="1" height="6" fill="#fff"/>
 <rect x="4" y="8" width="1" height="5" fill="#fff"/>
 <rect x="3" y="9" width="3" height="3" fill="#fff"/>
 <rect x="2" y="10" width="1" height="1" fill="#fff"/>

 <rect x="2" y="12" width="1" height="6" fill="#fff"/>
 <rect x="3" y="13" width="1" height="6" fill="#fff"/>
 <rect x="4" y="14" width="1" height="6" fill="#fff"/>
 <rect x="5" y="15" width="1" height="6" fill="#fff"/>
 <rect x="6" y="16" width="1" height="6" fill="#fff"/>
 <rect x="7" y="17" width="1" height="6" fill="#fff"/>
 <rect x="9" y="18" width="1" height="6" fill="#fff"/>
 <rect x="10" y="17" width="1" height="6" fill="#fff"/>
 <rect x="11" y="16" width="1" height="6" fill="#fff"/>
 <rect x="12" y="15" width="1" height="6" fill="#fff"/>
 <rect x="13" y="14" width="1" height="6" fill="#fff"/>
 <rect x="14" y="13" width="1" height="6" fill="#fff"/>
 <rect x="15" y="12" width="1" height="6" fill="#fff"/>
 <rect x="16" y="11" width="1" height="6" fill="#fff"/>
 <rect x="17" y="10" width="1" height="6" fill="#fff"/>
 <rect x="18" y="9" width="1" height="6" fill="#fff"/>
 <!-- <rect x="9" y="19" width="1" height="6" fill="#fff"/> -->
  
  </g>
</svg>