<svg xmlns="http://www.w3.org/2000/svg" viewBox="0 0 320 320" width="320" height="320">
  <!-- 픽셀 단위 크기 설정 (각 픽셀은 16x16 유닛으로 확대) -->
  
  <!-- 고양이 픽셀 아트 - 1.6배 확대 및 중앙 정렬 -->
  <g id="pixel-cat" transform="scale(0.8) translate(-10, 20)">
    <!-- 꼬리 부분 -->
    <rect x="150" y="300" width="10" height="10" fill="#000"/>

    <rect x="140" y="290" width="10" height="10" fill="#000"/>

    <rect x="130" y="280" width="10" height="10" fill="#000"/>

    <rect x="120" y="270" width="10" height="10" fill="#000"/>
    
    <rect x="110" y="260" width="10" height="10" fill="#000"/>
    <rect x="100" y="270" width="10" height="10" fill="#000"/>
    <rect x="100" y="280" width="10" height="10" fill="#000"/>
    <rect x="110" y="290" width="10" height="10" fill="#000"/>
    <rect x="120" y="300" width="10" height="10" fill="#000"/>
    <rect x="130" y="310" width="10" height="10" fill="#000"/>
    <rect x="140" y="320" width="20" height="10" fill="#000"/>
    <rect x="140" y="310" width="20" height="10" fill="#fff"/>
    <rect x="130" y="300" width="20" height="10" fill="#fff"/>
    <rect x="120" y="290" width="20" height="10" fill="#fff"/>
    <rect x="110" y="280"  width="20" height="10" fill="#fff"/>
    <rect x="110" y="270"   width="10" height="10" fill="#fff"/>
    <rect x="160" y="290" width="10" height="10" fill="#000"/>
    
  <g transform="translate(0, 70)">
  <!-- <rect x="170" y="80" width="10" height="10" fill="#000"/> -->
  <!-- <rect x="170" y="70" width="10" height="10" fill="#000"/> -->
  <!-- <rect x="170" y="60" width="10" height="10" fill="#000"/> -->
  <!-- <rect x="180" y="60" width="10" height="10" fill="#000"/> -->
  <rect x="190" y="70" width="10" height="10" fill="#000"/>
  <rect x="200" y="80" width="10" height="10" fill="#000"/>
  <rect x="210" y="90" width="10" height="10" fill="#000"/>
  <rect x="170" y="90" width="10" height="10" fill="#000"/>
    
    <!-- 왼쪽 귀 안쪽 (회색,흰색) -->
  <rect x="180" y="90" width="10" height="20" fill="#fff"/>
  <!-- <rect x="180" y="80" width="10" height="20" fill="#808080"/> -->
  <rect x="190" y="90" width="10" height="10" fill="#808080"/>
  <rect x="190" y="100" width="10" height="10" fill="#808080"/>
  <rect x="180" y="70" width="10" height="10" fill="#000"/>
  <rect x="180" y="80" width="10" height="10" fill="#000"/>
  <rect x="190" y="80" width="10" height="10" fill="#fff"/>
  <rect x="200" y="90" width="10" height="10" fill="#fff"/>
  <rect x="200" y="100" width="10" height="10" fill="#fff"/>
  <rect x="210" y="100" width="10" height="10" fill="#fff"/>
    
    <!-- 오른쪽 귀 -->
  <rect x="300" y="90" width="10" height="10" fill="#000"/>
  <!-- <rect x="300" y="80" width="10" height="10" fill="#000"/> -->
  <rect x="290" y="70" width="10" height="10" fill="#000"/>
  <!-- <rect x="300" y="60" width="10" height="10" fill="#000"/> -->
  <!-- <rect x="300" y="60" width="10" height="10" fill="#000"/> -->
  <!-- <rect x="290" y="60" width="10" height="10" fill="#000"/> -->
  <rect x="280" y="70" width="10" height="10" fill="#000"/>
  <rect x="270" y="80" width="10" height="10" fill="#000"/>
  <rect x="260" y="90" width="10" height="10" fill="#000"/>
 
    <!-- 오른쪽 귀 안쪽 (회색,흰색) -->
  <rect x="280" y="90" width="20" height="10" fill="#808080"/>
  <!-- <rect x="290" y="90" width="10" height="10" fill="#808080"/> -->
  <rect x="290" y="80" width="10" height="20" fill="#000"/>
  <!-- <rect x="290" y="100" width="10" height="20" fill="#808080"/> -->
  <rect x="280" y="100" width="10" height="20" fill="#808080"/>
  <rect x="270" y="100" width="10" height="20" fill="#fff"/>
  <rect x="270" y="90" width="10" height="10" fill="#fff"/>
  <rect x="280" y="80" width="10" height="10" fill="#fff"/>
  <!-- <rect x="290" y="70" width="10" height="10" fill="#fff"/> -->
  <rect x="260" y="100" width="10" height="10" fill="#fff"/>

  <rect x="170" y="110" width="10" height="10" fill="#000"/>
  <rect x="170" y="120" width="10" height="10" fill="#000"/>
  <rect x="170" y="120" width="10" height="10" fill="#000"/>
  <rect x="170" y="140" width="10" height="10" fill="#000"/>
  <rect x="170" y="150" width="10" height="10" fill="#000"/>
  <rect x="170" y="160" width="10" height="10" fill="#000"/>
  <rect x="300" y="110" width="10" height="10" fill="#000"/>
  <rect x="300" y="120" width="10" height="10" fill="#000"/>
  <rect x="300" y="130" width="10" height="10" fill="#000"/>
  <rect x="300" y="140" width="10" height="10" fill="#000"/>
  <rect x="300" y="150" width="10" height="10" fill="#000"/>
  <rect x="300" y="140" width="10" height="10" fill="#000"/>
    
    <!-- 머리 상단 -->
  <rect x="170" y="100" width="10" height="10" fill="#000"/>
  <rect x="220" y="100" width="10" height="10" fill="#000"/>
  <rect x="230" y="100" width="10" height="10" fill="#000"/>
  <rect x="240" y="100" width="10" height="10" fill="#000"/>
  <rect x="250" y="100" width="10" height="10" fill="#000"/>
  <rect x="300" y="100" width="10" height="10" fill="#000"/>
    
    <!-- 머리 하단 -->
  <rect x="170" y="170" width="10" height="10" fill="#000"/>
  <rect x="300" y="170" width="10" height="10" fill="#000"/>
    
    <!-- 얼굴 흰색 채우기 -->
  <rect x="180" y="110" width="120" height="80" fill="#fff"/>
  <rect x="190" y="170" width="100" height="20" fill="#fff"/>
    
    <!-- 왼쪽 눈 -->
  <rect x="220" y="150" width="10" height="10" fill="#000"/>
  <rect x="220" y="140" width="10" height="10" fill="#000"/>
    
    <!-- 오른쪽 눈 -->
  <rect x="280" y="140" width="10" height="10" fill="#000"/>
  <rect x="280" y="150" width="10" height="10" fill="#000"/>
  </g>
    
    <!-- 몸통 윤곽 -->
  <rect x="170" y="160" width="10" height="10" fill="#000"/>
  <rect x="300" y="160" width="10" height="10" fill="#000"/>
    
    <!-- 몸통 하단 -->

  <!-- <rect x="290" y="160" width="10" height="10" fill="#000"/> -->




<!-- <rect x="140" y="220" width="10" height="30" fill="#000"/> -->
<!-- <rect x="150" y="250" width="10" height="10" fill="#000"/> -->
<!-- <rect x="160" y="260" width="10" height="10" fill="#000"/> -->
<!-- <rect x="170" y="270" width="10" height="30" fill="#000"/> -->
<!-- <rect x="180" y="300" width="100" height="10" fill="#000"/> -->
<!-- <rect x="280" y="260" width="10" height="40" fill="#000"/> -->
<!-- <rect x="260" y="280" width="10" height="30" fill="#000"/> -->
<!-- <rect x="220" y="270" width="40" height="10" fill="#000"/> -->
<!-- <rect x="210" y="280" width="10" height="30" fill="#000"/> -->
<!-- <rect x="240" y="280" width="10" height="20" fill="#000"/> -->
<!-- <rect x="170" y="240" width="10" height="20" fill="#000"/> -->
<rect x="180" y="230" width="10" height="10" fill="#fff"/>
<!-- <rect x="180" y="220" width="10" height="10" fill="#000"/> -->
<!-- <rect x="180" y="210" width="10" height="10" fill="#000"/> -->
<rect x="180" y="210" width="10" height="10" fill="#fff"/>
<rect x="150" y="220" width="30" height="10" fill="#fff"/>
<rect x="160" y="220" width="10" height="20" fill="#fff"/>
<rect x="150" y="200" width="10" height="20" fill="#fff"/>
<rect x="150" y="210" width="50" height="10" fill="#fff"/>
<rect x="250" y="260" width="10" height="20" fill="#fff"/>
<rect x="230" y="260" width="10" height="20" fill="#fff"/>
<rect x="220" y="260" width="20" height="20" fill="#fff"/>
<rect x="170" y="240" width="110" height="10" fill="#fff"/>
<rect x="180" y="240" width="30" height="40" fill="#fff"/>
<rect x="210" y="250" width="10" height="10" fill="#fff"/>
<rect x="260" y="250" width="20" height="10" fill="#fff"/>
<rect x="270" y="250" width="10" height="30" fill="#fff"/>
<rect x="240" y="230" width="10" height="20" fill="#fff"/>
<rect x="240" y="180" width="10" height="20" fill="#fff"/>
<rect x="230" y="180" width="30" height="10" fill="#fff"/>

<!-- 왼쪽 가슴 색칠 -->

   
    <rect x="140" y="180" width="10" height="30" fill="#fff"/>
    <rect x="160" y="180" width="10" height="30" fill="#fff"/>
  
  <!-- 오른쪽 팔 -->
   <rect x="290" y="190" width="30" height="10" fill="#fff"/>
   <rect x="310" y="200" width="30" height="20" fill="#fff"/>
   <rect x="310" y="230" width="10" height="60" fill="#fff"/>
   <rect x="300" y="240" width="30" height="40" fill="#fff"/>
   <rect x="330" y="260" width="10" height="20" fill="#fff"/>
   <rect x="320" y="280" width="10" height="20" fill="#fff"/>
   <rect x="330" y="300" width="10" height="20" fill="#fff"/>
   <rect x="330" y="290" width="10" height="20" fill="#fff"/>
   <rect x="340" y="280" width="10" height="10" fill="#fff"/>
   <rect x="350" y="290" width="10" height="10" fill="#fff"/>
   <rect x="370" y="280" width="20" height="10" fill="#fff"/>
   <rect x="370" y="290" width="20" height="10" fill="#000"/>
   <rect x="330" y="300" width="60" height="10" fill="#fff"/>
   <rect x="290" y="250" width="10" height="20" fill="#000"/>
   <!-- <rect x="290" y="200" width="10" height="10" fill="#000"/> -->

   <rect x="290" y="180" width="30" height="10" fill="#000"/>
   <rect x="320" y="190" width="10" height="10" fill="#000"/>
   <rect x="330" y="200" width="10" height="20" fill="#000"/>
   <rect x="320" y="220" width="10" height="20" fill="#000"/>
   <rect x="330" y="240" width="10" height="20" fill="#000"/>
   <rect x="340" y="260" width="10" height="20" fill="#000"/>
   <rect x="350" y="280" width="20" height="10" fill="#000"/>
   <rect x="370" y="270" width="20" height="10" fill="#000"/>
   <rect x="360" y="290" width="10" height="10" fill="#000"/>
   <rect x="390" y="280" width="10" height="30" fill="#000"/>
   <rect x="330" y="310" width="60" height="10" fill="#000"/>
   <rect x="320" y="300" width="10" height="10" fill="#000"/>
   <rect x="310" y="290" width="10" height="10" fill="#000"/>
   <rect x="300" y="280" width="10" height="10" fill="#000"/>
   <rect x="290" y="270" width="10" height="10" fill="#000"/>
   <rect x="320" y="270" width="10" height="10" fill="#000"/>
   <rect x="330" y="280" width="10" height="10" fill="#000"/>
   <rect x="340" y="290" width="10" height="10" fill="#000"/>
   
<!-- 오른 쪽 다리  -->
  <rect x="280" y="290" width="30" height="10" fill="#000"/>
  <rect x="310" y="300" width="10" height="50" fill="#000"/>
  <rect x="310" y="350" width="20" height="10" fill="#000"/>
  <rect x="330" y="360" width="10" height="10" fill="#000"/>
  <rect x="280" y="370" width="50" height="10" fill="#000"/>
  <rect x="280" y="330" width="10" height="40" fill="#000"/>
  <rect x="190" y="330" width="100" height="10" fill="#000"/>
  <rect x="190" y="330" width="30" height="10" fill="#fff"/>
  <rect x="160" y="330" width="30" height="10" fill="#fff"/>
  <rect x="180" y="320" width="10" height="10" fill="#000"/>
  <rect x="170" y="320" width="10" height="10" fill="#000"/>
  <rect x="160" y="310" width="10" height="10" fill="#000"/>
  <rect x="160" y="300" width="10" height="10" fill="#000"/>
  <rect x="170" y="290" width="10" height="10" fill="#000"/>

  <!-- 왼쪽 다리 -->

  <rect x="160" y="330" width="10" height="10" fill="#000"/>
  <rect x="160" y="340" width="10" height="10" fill="#000"/>
  <rect x="150" y="340" width="10" height="10" fill="#000"/>
  <rect x="120" y="340" width="30" height="10" fill="#000"/>
  <rect x="110" y="350" width="10" height="30" fill="#000"/>
  <rect x="120" y="370" width="10" height="10" fill="#000"/>
  <rect x="130" y="370" width="10" height="10" fill="#000"/>
  <rect x="140" y="360" width="30" height="10" fill="#000"/>
  <rect x="170" y="370" width="30" height="10" fill="#000"/>
  <rect x="200" y="360" width="10" height="10" fill="#000"/>
  <rect x="170" y="360" width="30" height="10" fill="#fff"/>
  <rect x="210" y="340" width="10" height="20" fill="#000"/>
  <rect x="120" y="350" width="20" height="20" fill="#fff"/>
  <rect x="120" y="350" width="90" height="10" fill="#fff"/>
  <rect x="170" y="340" width="40" height="20" fill="#fff"/>
  <!-- <rect x="180" y="330" width="10" height="10" fill="#000"/> -->
  <rect x="180" y="320" width="10" height="10" fill="#fff"/>
  <rect x="190" y="320" width="120" height="10" fill="#fff"/>
  <rect x="170" y="310" width="140" height="10" fill="#fff"/>
  <rect x="170" y="300" width="140" height="10" fill="#fff"/>
  <rect x="180" y="290" width="100" height="30" fill="#fff"/>
  <rect x="180" y="290" width="100" height="30" fill="#fff"/>
  <rect x="300" y="300" width="10" height="70" fill="#fff"/>
  <rect x="290" y="300" width="20" height="70" fill="#fff"/>
  <rect x="290" y="360" width="40" height="10" fill="#fff"/>
  <rect x="230" y="290" width="10" height="20" fill="#000"/>
  <rect x="220" y="310" width="10" height="10" fill="#000"/>
  <rect x="220" y="320" width="10" height="10" fill="#000"/>

<!-- 왼쪽 팔 -->
 <rect x="130" y="190" width="10" height="70" fill="#fff"/>
 <rect x="120" y="200" width="10" height="20" fill="#fff"/>
 <rect x="140" y="250" width="10" height="30" fill="#fff"/>
 <rect x="150" y="260" width="10" height="30" fill="#fff"/>
 <rect x="160" y="270" width="10" height="30" fill="#fff"/>

 <rect x="130" y="180" width="40" height="10" fill="#000"/>
 <rect x="120" y="190" width="10" height="10" fill="#000"/>
 <rect x="110" y="200" width="10" height="30" fill="#000"/>
 <rect x="120" y="230" width="10" height="30" fill="#000"/>
 <rect x="130" y="260" width="10" height="30" fill="#000"/>
 <rect x="140" y="290" width="10" height="10" fill="#000"/>
 <rect x="150" y="300" width="30" height="10" fill="#000"/>
 <rect x="180" y="310" width="30" height="10" fill="#000"/>
 <rect x="180" y="270" width="20" height="10" fill="#000"/>
 <rect x="200" y="280" width="20" height="10" fill="#000"/>
 <rect x="180" y="300" width="20" height="10" fill="#fff"/>

 <rect x="190" y="290" width="10" height="10" fill="#000"/>
 
 <rect x="160" y="230" width="10" height="20" fill="#000"/>
 <rect x="170" y="250" width="10" height="20" fill="#000"/>

 <!-- 얼굴 턱 부분 -->
 <rect x="300" y="170" width="10" height="20" fill="#000"/>
 <rect x="200" y="260" width="100" height="10" fill="#000"/>
 <rect x="190" y="250" width="10" height="10" fill="#000"/>
 <rect x="180" y="240" width="10" height="10" fill="#000"/>
 <rect x="280" y="270" width="10" height="20" fill="#000"/>
 <rect x="290" y="170" width="10" height="20" fill="#fff"/>
 <rect x="290" y="160" width="10" height="10" fill="#fff"/>
   <rect x="290" y="160" width="10" height="20" fill="#fff"/>

  </g>
</svg>